<svg xmlns="http://www.w3.org/2000/svg" version="1.1" viewBox="67.39 377.28 1118.61 439.87">
<path d="M0 0 C1.72669922 0.88558594 1.72669922 0.88558594 3.48828125 1.7890625 C10.99981434 5.72924393 18.10994696 10.05449913 25 15 C25.94407715 15.66902344 25.94407715 15.66902344 26.90722656 16.3515625 C45.46220828 29.6521148 62.86795272 46.27306281 76 65 C76.69996094 65.86882812 77.39992188 66.73765625 78.12109375 67.6328125 C79.99405127 69.99250534 81.428575 72.43968873 82.87988281 75.07397461 C84.08794503 77.15122021 85.42475806 79.09393102 86.796875 81.06640625 C90.14159549 86.06163602 92.80656887 91.25954576 95.375 96.6875 C95.84687744 97.68209229 96.31875488 98.67668457 96.80493164 99.70141602 C103.87870792 114.89511574 109.58504438 130.57288589 113 147 C113.18046875 147.86109375 113.3609375 148.7221875 113.546875 149.609375 C114.12876119 152.42444601 114.69363163 155.24227949 115.25 158.0625 C115.42563477 158.94365479 115.60126953 159.82480957 115.78222656 160.73266602 C116.69953762 165.57634635 117.07723441 170.05056126 117 175 C117.33 175.66 117.66 176.32 118 177 C118.0963769 178.51711787 118.13075204 180.03841913 118.1328125 181.55859375 C118.13619629 182.95851563 118.13619629 182.95851563 118.13964844 184.38671875 C118.13239746 185.89685547 118.13239746 185.89685547 118.125 187.4375 C118.11774902 188.99597656 118.11774902 188.99597656 118.11035156 190.5859375 C118.08634352 193.72426879 118.04763076 196.86194333 118 200 C117.98743164 200.84965332 117.97486328 201.69930664 117.96191406 202.57470703 C117.46479766 227.16167827 112.12301632 251.54645602 102 274 C101.35828857 273.90912109 100.71657715 273.81824219 100.05541992 273.72460938 C63.15679372 268.74994367 24.89934707 269.22751302 -12 274 C-13.10843262 274.13921875 -14.21686523 274.2784375 -15.35888672 274.421875 C-70.14469851 281.50688344 -127.56822216 296.64820884 -175.94775391 323.88208008 C-178.23251613 325.1266585 -180.55424379 326.27337337 -182.890625 327.41796875 C-188.04137949 329.9711742 -192.9616379 332.83208272 -197.875 335.8125 C-198.75067627 336.34166016 -199.62635254 336.87082031 -200.52856445 337.41601562 C-213.08411162 345.04387926 -225.03489956 353.4888309 -237 362 C-269.85355922 346.1154636 -294.43671491 296.52921063 -306.32080078 263.97167969 C-308.57818498 257.41861182 -310.31059963 250.71741182 -312 244 C-312.18836426 243.26910156 -312.37672852 242.53820312 -312.57080078 241.78515625 C-321.80794566 205.51542204 -320.32877916 165.62462803 -309 130 C-308.77586426 129.29020996 -308.55172852 128.58041992 -308.32080078 127.84912109 C-290.8360583 73.51932493 -251.99262043 26.0366979 -201.21826172 -0.45117188 C-176.54221567 -12.92377646 -152.48081017 -20.70753885 -125 -24 C-123.91706665 -24.14465698 -123.91706665 -24.14465698 -122.81225586 -24.29223633 C-80.23869875 -29.6768635 -37.64646747 -19.42493288 0 0 Z M-162 58 C-162.9796875 58.48210937 -163.959375 58.96421875 -164.96875 59.4609375 C-177.86575328 66.16886162 -188.73399859 74.81916644 -199 85 C-199.92554688 85.91265625 -200.85109375 86.8253125 -201.8046875 87.765625 C-221.38350198 108.08219191 -235.00913461 134.97536278 -239 163 C-239.16346924 164.00651611 -239.32693848 165.01303223 -239.49536133 166.05004883 C-242.91288033 187.85563465 -242.30433479 209.81381691 -236 231 C-235.61448975 232.30783447 -235.61448975 232.30783447 -235.22119141 233.64208984 C-230.55472698 249.01077103 -223.8010689 265.82261761 -213 278 C-212.34 278 -211.68 278 -211 278 C-211.26452729 270.94222537 -211.53131993 263.88453876 -211.79956055 256.8269043 C-211.89023017 254.4346706 -211.98041389 252.04241844 -212.07006836 249.65014648 C-212.74863587 231.38924453 -212.74863587 231.38924453 -213.69847107 213.14091492 C-213.98464713 208.1717456 -214.04504822 203.22678348 -214 198.25 C-213.92225212 187.48407798 -214.459468 176.75026138 -215 166 C-214.2265625 166.2165625 -213.453125 166.433125 -212.65625 166.65625 C-203.46471608 169.11339273 -197.32262671 169.83922857 -188.24609375 166.97265625 C-187.07618896 166.605354 -185.90628418 166.23805176 -184.70092773 165.85961914 C-183.80962158 165.57594482 -182.91831543 165.29227051 -182 165 C-182.00490952 165.80099625 -182.00981903 166.60199249 -182.01487732 167.42726135 C-182.12601347 188.67977647 -181.81806027 209.8980501 -181.20043945 231.14135742 C-181.08189696 235.2216212 -180.97209484 239.30207238 -180.86443424 243.38263607 C-180.77945712 246.56789412 -180.69004429 249.75301543 -180.59924126 252.93811226 C-180.55678631 254.44639803 -180.51572849 255.95472383 -180.4761219 257.46308708 C-180.42100027 259.53797082 -180.35989223 261.61259149 -180.29711914 263.68725586 C-180.26380997 264.86235214 -180.23050079 266.03744843 -180.19618225 267.24815369 C-180.17912971 269.96047237 -180.17912971 269.96047237 -179 272 C-172.59161231 270.7144851 -166.71132148 268.92161181 -160.625 266.5625 C-153.83182334 263.9883905 -147.08156575 261.67093124 -140 260 C-144.2038932 258.48659845 -145.95783601 259.27969086 -151 260 C-151.33 234.92 -151.66 209.84 -152 184 C-156.62 184.99 -161.24 185.98 -166 187 C-168 185 -168 185 -168.125 181.875 C-168.08375 180.92625 -168.0425 179.9775 -168 179 C-163.92308123 177.46156534 -159.83758284 175.94734811 -155.75 174.4375 C-154.59113281 173.99986328 -153.43226563 173.56222656 -152.23828125 173.11132812 C-151.12324219 172.70205078 -150.00820312 172.29277344 -148.859375 171.87109375 C-147.31975098 171.29766235 -147.31975098 171.29766235 -145.74902344 170.71264648 C-143 170 -143 170 -139 171 C-138.67 183.87 -138.34 196.74 -138 210 C-127.85937011 199.85937011 -118.76910881 186.04630642 -113.375 172.75 C-111.4009828 168.16841277 -111.4009828 168.16841277 -107.875 166.6875 C-105 167 -105 167 -102 169 C-102.9821975 184.38776081 -117.9056139 199.31182648 -128 210 C-118.80665431 221.49168211 -105.13385687 235.64159484 -89.92578125 237.94921875 C-85.17925092 238.07438081 -82.63544684 236.55256247 -79.125 233.5 C-76.78411719 231.29287043 -76.78411719 231.29287043 -77 229 C-76.34 229 -75.68 229 -75 229 C-77.70615034 240.70615034 -77.70615034 240.70615034 -82 245 C-73.97229811 244.44636539 -66.66145933 242.34312056 -59 240 C-59.60585938 239.55011719 -60.21171875 239.10023438 -60.8359375 238.63671875 C-65.43235169 235.16036939 -68.3434173 232.41674702 -69.66064453 226.6550293 C-70.42916378 220.6423337 -69.91147876 214.53874545 -69.625 208.5 C-69.56665073 207.09118924 -69.50935013 205.68233463 -69.453125 204.2734375 C-69.31236947 200.84838625 -69.16102407 197.42414822 -69 194 C-69.99 193.67 -70.98 193.34 -72 193 C-71.9375 190.6875 -71.9375 190.6875 -71 188 C-66.03910549 185.16520313 -61.6253433 184.63219259 -56 184 C-56.0721875 184.96035156 -56.144375 185.92070313 -56.21875 186.91015625 C-56.83468921 195.73023065 -57.13179138 204.53334495 -57.1875 213.375 C-57.20039063 214.37926025 -57.21328125 215.38352051 -57.2265625 216.41821289 C-57.22849609 217.83154907 -57.22849609 217.83154907 -57.23046875 219.2734375 C-57.23457764 220.11310059 -57.23868652 220.95276367 -57.24291992 221.81787109 C-57.13649831 224.29275981 -57.13649831 224.29275981 -55 227 C-51.48429005 227.51473101 -49.63171515 227.38514246 -46.578125 225.5234375 C-37.28727432 216.9496659 -30.2673265 207.22707678 -24.75 195.875 C-24.43780518 195.24770996 -24.12561035 194.62041992 -23.80395508 193.97412109 C-22.14793287 190.36478424 -22.14793287 190.36478424 -22.828125 186.5703125 C-23.21484375 186.05210937 -23.6015625 185.53390625 -24 185 C-23.38125 184.835 -22.7625 184.67 -22.125 184.5 C-18.72243051 182.09818625 -18.77387974 178.99837866 -18 175 C-20.27076842 174.97300275 -22.54162821 174.95360547 -24.8125 174.9375 C-26.07707031 174.92589844 -27.34164062 174.91429687 -28.64453125 174.90234375 C-31.99605237 174.83840884 -31.99605237 174.83840884 -35 176 C-34.25 170.25 -34.25 170.25 -32 168 C-29.28383215 167.37407549 -26.61828333 166.83932084 -23.875 166.375 C-23.12089844 166.2409375 -22.36679687 166.106875 -21.58984375 165.96875 C-19.72780082 165.63876771 -17.86404825 165.31845927 -16 165 C-15.76925781 164.11957031 -15.53851563 163.23914063 -15.30078125 162.33203125 C-13.12859198 154.59629001 -11.77144111 150.13125823 -5 145.6875 C-2.58027761 144.85572043 -0.5406839 144.85885089 2 145 C1.731875 145.66 1.46375 146.32 1.1875 147 C0.795625 147.99 0.40375 148.98 0 150 C-0.39638672 150.94166016 -0.39638672 150.94166016 -0.80078125 151.90234375 C-2.50239333 156.10395461 -3.34616025 159.38453003 -3 164 C8.42989147 164.44435863 19.75481219 162.95952252 31 161 C30.67 163.31 30.34 165.62 30 168 C20.423752 170.5768377 11.30462457 172.46111373 1.35961914 172.67163086 C-2.77206221 172.63863467 -2.77206221 172.63863467 -6 175 C-6.55880414 177.47949436 -6.55880414 177.47949436 -6.8515625 180.390625 C-7.04552612 182.03490479 -7.04552612 182.03490479 -7.2434082 183.71240234 C-7.3693335 184.87980957 -7.49525879 186.0472168 -7.625 187.25 C-7.82065552 189.01851318 -7.82065552 189.01851318 -8.02026367 190.82275391 C-10.37845299 205.35555696 -10.37845299 205.35555696 -7 219 C-4.89022401 220.62896956 -4.89022401 220.62896956 -2 221 C5.64937924 219.31454356 10.62612609 214.52052934 16 209 C16.33 208.34 16.66 207.68 17 207 C17.34070456 211.78879182 17.51784806 215.7759955 15.625 220.25 C11.93113958 224.11975853 7.64649596 226.42464665 3 229 C2.01 229.66 1.02 230.32 0 231 C7.82504899 231.11881853 15.57014509 230.66577071 23.375 230.125 C24.64472656 230.04636719 25.91445313 229.96773437 27.22265625 229.88671875 C28.43566406 229.80292969 29.64867187 229.71914063 30.8984375 229.6328125 C31.99849121 229.55949707 33.09854492 229.48618164 34.23193359 229.41064453 C37.20635708 229.17052592 37.20635708 229.17052592 40 227 C40.75200481 224.15909294 41.27752084 221.52102303 41.6875 218.625 C41.8119751 217.7494043 41.9364502 216.87380859 42.06469727 215.97167969 C46.63821124 179.82122471 40.46346461 140.72021337 20 110 C19.37996094 109.02289062 18.75992187 108.04578125 18.12109375 107.0390625 C4.96380361 87.02447382 -13.55601856 69.72199072 -35 59 C-36.7325 58.13375 -36.7325 58.13375 -38.5 57.25 C-77.70769834 38.08810972 -122.90581231 38.71705607 -162 58 Z M-23 206 C-23.81791016 207.55847656 -23.81791016 207.55847656 -24.65234375 209.1484375 C-30.98944611 220.97513996 -37.30756093 231.29890444 -50 237 C-46.39804106 238.21555889 -43.53080286 237.83837702 -39.80078125 237.29296875 C-37.98610352 237.0309668 -37.98610352 237.0309668 -36.13476562 236.76367188 C-34.87341797 236.57353516 -33.61207031 236.38339844 -32.3125 236.1875 C-31.07048828 236.00896484 -29.82847656 235.83042969 -28.54882812 235.64648438 C-21.9580564 234.6789996 -15.47857022 233.55120695 -9 232 C-9.59554687 231.71253906 -10.19109375 231.42507813 -10.8046875 231.12890625 C-14.70572126 229.12285864 -18.09788605 227.15315877 -19.828125 223.0234375 C-21.22006573 217.39601996 -21.21663093 211.76478965 -21 206 C-21.66 206 -22.32 206 -23 206 Z M-138 218 C-138.33 231.53 -138.66 245.06 -139 259 C-124.41075533 255.57006996 -124.41075533 255.57006996 -109.9375 251.75 C-108.96490234 251.481875 -107.99230469 251.21375 -106.99023438 250.9375 C-104.65935578 250.29449901 -102.32929593 249.64870583 -100 249 C-102.51541473 247.02148598 -104.90198012 245.47970143 -107.81640625 244.16796875 C-112.07101478 242.09137319 -115.41670438 239.44873417 -118.9375 236.3125 C-119.53796143 235.78793213 -120.13842285 235.26336426 -120.75708008 234.72290039 C-125.71349099 230.35256729 -130.4195296 225.76247585 -135 221 C-135.99 220.01 -136.98 219.02 -138 218 Z " fill="#003DB5" transform="translate(386,403)"/>
<path d="M0 0 C0 3.86829564 -0.43775319 5.4485322 -1.9375 8.875 C-3.56602953 12.59902093 -4.37838851 15.98699511 -5 20 C-0.45802149 19.5237598 4.08352265 19.04349391 8.625 18.5625 C9.91019531 18.42779297 11.19539063 18.29308594 12.51953125 18.15429688 C13.76347656 18.02216797 15.00742187 17.89003906 16.2890625 17.75390625 C17.43068848 17.63345947 18.57231445 17.5130127 19.74853516 17.38891602 C22.85340569 17.01753452 25.9205038 16.54044139 29 16 C29.71268945 18.56568204 30.14244129 20.42471387 29.49609375 23.03515625 C27.17201545 26.08740529 24.02149104 26.4324948 20.4375 27.1875 C19.69113281 27.35548096 18.94476563 27.52346191 18.17578125 27.6965332 C11.21893778 29.15872094 4.30884368 29.60410284 -2.78125 29.82421875 C-5.85545299 29.63295437 -5.85545299 29.63295437 -7 31 C-7.68932234 35.0377067 -8.09741869 39.11859617 -8.5625 43.1875 C-8.69817383 44.37029541 -8.83384766 45.55309082 -8.97363281 46.77172852 C-10.87241443 60.50410549 -10.87241443 60.50410549 -9 74 C-6.92511453 75.5666741 -6.92511453 75.5666741 -4 76 C4.57442146 73.99930166 9.96822593 68.08885711 16 62 C16.50500416 68.20593995 16.92019085 73.45827098 12.77734375 78.4296875 C9.2391092 81.55577605 5.15521548 83.79733238 1 86 C1.94875 85.93941406 2.8975 85.87882813 3.875 85.81640625 C8.58215845 85.52276275 13.29076767 85.25801641 18 85 C18.86222168 84.95198242 19.72444336 84.90396484 20.61279297 84.85449219 C51.32690102 83.1997464 81.40831908 83.95325657 112 87 C111.645154 95.4197186 109.80487273 102.78722402 107.125 110.75 C106.59712891 112.37615234 106.59712891 112.37615234 106.05859375 114.03515625 C104.27081398 119.47824782 102.36988826 124.78326483 100 130 C99.35828857 129.90912109 98.71657715 129.81824219 98.05541992 129.72460938 C61.15679372 124.74994367 22.89934707 125.22751302 -14 130 C-15.10843262 130.13921875 -16.21686523 130.2784375 -17.35888672 130.421875 C-72.14469851 137.50688344 -129.56822216 152.64820884 -177.94775391 179.88208008 C-180.23251613 181.1266585 -182.55424379 182.27337337 -184.890625 183.41796875 C-190.04137949 185.9711742 -194.9616379 188.83208272 -199.875 191.8125 C-200.75067627 192.34166016 -201.62635254 192.87082031 -202.52856445 193.41601562 C-215.08411162 201.04387926 -227.03489956 209.4888309 -239 218 C-252.59305553 211.42782364 -263.30849607 196.83041527 -272.4375 185.125 C-272.88730225 184.55297852 -273.33710449 183.98095703 -273.80053711 183.39160156 C-277 179.23658397 -277 179.23658397 -277 177 C-275.52905273 175.86181641 -275.52905273 175.86181641 -273.43359375 174.6015625 C-272.64952148 174.1281543 -271.86544922 173.65474609 -271.05761719 173.16699219 C-270.19297852 172.65813477 -269.32833984 172.14927734 -268.4375 171.625 C-267.54579102 171.09551758 -266.65408203 170.56603516 -265.73535156 170.02050781 C-255.37107231 163.93845416 -244.71398094 158.43465688 -234 153 C-233.23107422 152.60796387 -232.46214844 152.21592773 -231.66992188 151.81201172 C-222.21149371 146.994902 -212.65858538 142.40153151 -203 138 C-202.31212402 137.68562988 -201.62424805 137.37125977 -200.91552734 137.04736328 C-182.96851937 128.87335761 -164.9063029 121.64622621 -146 116 C-147.134375 116.185625 -148.26875 116.37125 -149.4375 116.5625 C-151.2009375 116.7790625 -151.2009375 116.7790625 -153 117 C-154.67335996 115.32664004 -154.11962895 113.28612091 -154.12442017 111.05252075 C-154.11902725 109.99192947 -154.11902725 109.99192947 -154.11352539 108.90991211 C-154.11367142 108.16849472 -154.11381744 107.42707733 -154.1139679 106.66319275 C-154.11326865 104.20121379 -154.10547574 101.73930957 -154.09765625 99.27734375 C-154.09579211 97.57483461 -154.09436819 95.87232493 -154.09336853 94.16981506 C-154.08954302 89.68006927 -154.07971247 85.19035562 -154.06866455 80.70062256 C-154.05845113 76.12268509 -154.05387106 71.54474244 -154.04882812 66.96679688 C-154.03809022 57.97785043 -154.02101341 48.98892788 -154 40 C-154.81984375 40.31195312 -155.6396875 40.62390625 -156.484375 40.9453125 C-157.56203125 41.33460938 -158.6396875 41.72390625 -159.75 42.125 C-160.81734375 42.51945313 -161.8846875 42.91390625 -162.984375 43.3203125 C-166 44 -166 44 -168.328125 43.1796875 C-170 42 -170 42 -171 41 C-171.04080783 39.00041636 -171.04254356 36.99954746 -171 35 C-165.19073987 32.2538043 -159.26852286 29.8680158 -153.25 27.625 C-152.51724854 27.33802246 -151.78449707 27.05104492 -151.02954102 26.75537109 C-149.97077759 26.36986084 -149.97077759 26.36986084 -148.890625 25.9765625 C-148.26188477 25.74018066 -147.63314453 25.50379883 -146.98535156 25.26025391 C-145 25 -145 25 -140 27 C-139.67 39.21 -139.34 51.42 -139 64 C-131.9307088 55.7524936 -126.13838725 47.14811497 -120.75 37.75 C-120.41129883 37.15928711 -120.07259766 36.56857422 -119.72363281 35.95996094 C-117.9192453 32.76592574 -116.33138749 29.55163474 -114.875 26.1875 C-113 23 -113 23 -110 21.8125 C-106.63286495 22.02294594 -105.39897909 22.69328934 -103 25 C-103.9821975 40.38776081 -118.9056139 55.31182648 -129 66 C-119.96982466 77.22670448 -106.8779472 90.70385435 -91.92578125 92.9453125 C-88.75788557 93.03527303 -86.78401072 92.5185513 -84 91 C-82.18504907 89.09430152 -80.62549899 87.07702649 -79 85 C-78.34 85 -77.68 85 -77 85 C-77.03363577 86.37600868 -77.10361738 87.75113867 -77.1875 89.125 C-77.22230469 89.89070312 -77.25710938 90.65640625 -77.29296875 91.4453125 C-78.31895708 95.15247474 -80.42371014 97.16484848 -83 100 C-80.41515574 99.54915507 -77.8323671 99.08964737 -75.25 98.625 C-74.52039063 98.49867188 -73.79078125 98.37234375 -73.0390625 98.2421875 C-69.4061572 97.58165926 -66.1812995 96.92552338 -63 95 C-63.928125 94.46375 -64.85625 93.9275 -65.8125 93.375 C-70.60104938 89.80706125 -72.13434959 85.76792215 -73 80 C-72.98169098 77.68373674 -72.8998632 75.36757039 -72.7734375 73.0546875 C-72.71039042 71.7174736 -72.64790706 70.38023302 -72.5859375 69.04296875 C-72.48245843 66.95121318 -72.3741523 64.8600159 -72.25585938 62.76904297 C-72.14372374 60.73967303 -72.05097219 58.71014138 -71.9609375 56.6796875 C-71.86498291 54.86573486 -71.86498291 54.86573486 -71.76708984 53.01513672 C-71.72040593 49.99194398 -71.72040593 49.99194398 -73.50244141 48.08251953 C-74.24373291 47.54667236 -74.24373291 47.54667236 -75 47 C-74.1875 44.6875 -74.1875 44.6875 -72 42 C-67.35214215 40.10801485 -62.85949459 38.38016847 -58 40 C-57.06913085 43.82690649 -57.03399622 47.10575082 -57.46484375 50.9765625 C-58.05615422 57.01734224 -58.14855673 62.99664296 -58.125 69.0625 C-58.12886719 70.09310547 -58.13273438 71.12371094 -58.13671875 72.18554688 C-58.13542969 73.16716797 -58.13414062 74.14878906 -58.1328125 75.16015625 C-58.13112061 76.48478882 -58.13112061 76.48478882 -58.12939453 77.83618164 C-58.13932351 80.04887423 -58.13932351 80.04887423 -57 82 C-53.57853878 82.28182556 -51.56830343 82.3382322 -48.578125 80.55859375 C-38.57088947 71.44126339 -28.74019219 58.22425095 -25 45 C-25.73337306 42.66809508 -25.73337306 42.66809508 -27 41 C-26.01 40.01 -26.01 40.01 -25 39 C-24.01 39 -23.02 39 -22 39 C-21.67 36.69 -21.34 34.38 -21 32 C-23.10409639 31.97298592 -25.20829178 31.95359777 -27.3125 31.9375 C-28.48425781 31.92589844 -29.65601563 31.91429687 -30.86328125 31.90234375 C-34.03059195 31.85100102 -34.03059195 31.85100102 -37 33 C-38.10048822 29.79024269 -38.20067767 28.43145699 -36.75 25.3125 C-31.57678269 20.96229454 -24.56579726 20.86892238 -18 21 C-17.9175 19.845 -17.835 18.69 -17.75 17.5 C-17.01355827 11.95213896 -15.46744715 7.13191563 -11.1328125 3.38671875 C-7.46214306 0.9280628 -4.54752888 -0.71055139 0 0 Z M-25 62 C-25.81791016 63.55847656 -25.81791016 63.55847656 -26.65234375 65.1484375 C-32.98944611 76.97513996 -39.30756093 87.29890444 -52 93 C-48.39804106 94.21555889 -45.53080286 93.83837702 -41.80078125 93.29296875 C-39.98610352 93.0309668 -39.98610352 93.0309668 -38.13476562 92.76367188 C-36.87341797 92.57353516 -35.61207031 92.38339844 -34.3125 92.1875 C-33.07048828 92.00896484 -31.82847656 91.83042969 -30.54882812 91.64648438 C-23.9580564 90.6789996 -17.47857022 89.55120695 -11 88 C-11.59554687 87.71253906 -12.19109375 87.42507813 -12.8046875 87.12890625 C-16.70572126 85.12285864 -20.09788605 83.15315877 -21.828125 79.0234375 C-23.22006573 73.39601996 -23.21663093 67.76478965 -23 62 C-23.66 62 -24.32 62 -25 62 Z M-140 74 C-140.33 87.53 -140.66 101.06 -141 115 C-126.41075533 111.57006996 -126.41075533 111.57006996 -111.9375 107.75 C-110.96490234 107.481875 -109.99230469 107.21375 -108.99023438 106.9375 C-106.65935578 106.29449901 -104.32929593 105.64870583 -102 105 C-104.51541473 103.02148598 -106.90198012 101.47970143 -109.81640625 100.16796875 C-114.07101478 98.09137319 -117.41670438 95.44873417 -120.9375 92.3125 C-121.53796143 91.78793213 -122.13842285 91.26336426 -122.75708008 90.72290039 C-127.71349099 86.35256729 -132.4195296 81.76247585 -137 77 C-137.99 76.01 -138.98 75.02 -140 74 Z " fill="#E8081C" transform="translate(388,547)"/>
<path d="M0 0 C1.13682472 0.00660896 1.13682472 0.00660896 2.2966156 0.01335144 C7.52164962 0.08142758 12.61420145 0.56325769 17.80078125 1.203125 C16.36978618 5.31629932 14.34900024 8.41756325 11.73828125 11.890625 C9.04158081 15.40619517 9.04158081 15.40619517 6.80078125 19.203125 C6.14078125 19.203125 5.48078125 19.203125 4.80078125 19.203125 C4.57390625 19.739375 4.34703125 20.275625 4.11328125 20.828125 C2.34508036 24.02772661 0.26407922 26.49349723 -2.19921875 29.203125 C-2.85921875 29.203125 -3.51921875 29.203125 -4.19921875 29.203125 C-4.60333984 30.09451172 -4.60333984 30.09451172 -5.015625 31.00390625 C-9.09447112 38.58275235 -17.63443503 43.94218027 -24.19921875 49.203125 C-25.00359375 49.87472656 -25.80796875 50.54632812 -26.63671875 51.23828125 C-47.82532858 68.76767392 -73.80456716 80.90247669 -100.19921875 88.203125 C-101.36324219 88.53957031 -102.52726563 88.87601563 -103.7265625 89.22265625 C-119.46907039 93.63320148 -134.86519525 95.81110844 -151.19921875 96.203125 C-152.00230469 96.22503906 -152.80539062 96.24695313 -153.6328125 96.26953125 C-185.44265315 97.03296743 -218.44347721 92.58099577 -247.19921875 78.203125 C-246.49878356 73.21252425 -243.28271639 71.53359955 -239.47265625 68.61328125 C-238.38367209 67.80696812 -237.29232283 67.00384394 -236.19921875 66.203125 C-235.55758789 65.73245605 -234.91595703 65.26178711 -234.25488281 64.77685547 C-167.04436139 15.79746421 -81.63255311 -0.70623583 0 0 Z " fill="#E8081B" transform="translate(450.19921875,720.796875)"/>
<path d="M0 0 C1.25780273 0.00773438 1.25780273 0.00773438 2.54101562 0.015625 C3.8490918 0.0465625 3.8490918 0.0465625 5.18359375 0.078125 C6.05951172 0.08328125 6.93542969 0.0884375 7.83789062 0.09375 C14.31182481 0.17349053 14.31182481 0.17349053 16.62109375 1.328125 C16.6480574 3.11970989 16.66747292 4.91140973 16.68359375 6.703125 C16.69519531 7.70085938 16.70679688 8.69859375 16.71875 9.7265625 C16.62109375 12.328125 16.62109375 12.328125 15.62109375 14.328125 C12.57944585 14.64590911 9.56042977 14.70804621 6.50390625 14.7890625 C3.49800875 15.05403038 3.49800875 15.05403038 1.73828125 17.3671875 C1.18527344 18.33785156 1.18527344 18.33785156 0.62109375 19.328125 C1.30171875 19.51375 1.98234375 19.699375 2.68359375 19.890625 C7.66633783 22.32898913 11.48922922 26.16281894 14.05859375 31.078125 C14.62109375 33.328125 14.62109375 33.328125 14.62109375 36.328125 C25.84109375 36.328125 37.06109375 36.328125 48.62109375 36.328125 C47.40426066 30.54671687 47.40426066 30.54671687 44.80859375 29.203125 C44.08671875 28.914375 43.36484375 28.625625 42.62109375 28.328125 C37.84331597 24.77256944 37.84331597 24.77256944 36.62109375 22.328125 C35.79712137 15.73634593 37.96098903 10.79921904 41.62109375 5.328125 C45.47136594 1.65111506 49.75810321 0.2176295 55.00976562 0.15112305 C55.89498901 0.13828781 56.7802124 0.12545258 57.69226074 0.11222839 C58.64846313 0.10484146 59.60466553 0.09745453 60.58984375 0.08984375 C61.58052856 0.081772 62.57121338 0.07370026 63.59191895 0.06538391 C65.69342298 0.05154519 67.79494948 0.04082209 69.89648438 0.03295898 C73.08117641 0.01583958 76.26480468 -0.02803765 79.44921875 -0.07226562 C81.49608615 -0.08240131 83.54296235 -0.09091467 85.58984375 -0.09765625 C86.52985229 -0.11516434 87.46986084 -0.13267242 88.43835449 -0.15071106 C96.46739206 -0.12491092 104.13567232 1.52463385 110.49609375 6.640625 C111.19734375 7.5275 111.89859375 8.414375 112.62109375 9.328125 C113.28044922 10.08222656 113.28044922 10.08222656 113.953125 10.8515625 C120.42026163 18.79104435 119.92262563 29.05931123 119.88671875 38.828125 C119.8886322 39.98562256 119.89054565 41.14312012 119.89251709 42.33569336 C119.89386989 44.76269755 119.89023718 47.18970919 119.88183594 49.61669922 C119.87104523 53.34488902 119.88180209 57.0726055 119.89453125 60.80078125 C119.89321103 63.16406357 119.89065148 65.52734559 119.88671875 67.890625 C119.89076721 69.00824219 119.89481567 70.12585938 119.89898682 71.27734375 C119.88953033 72.82035156 119.88953033 72.82035156 119.87988281 74.39453125 C119.87829163 75.30146729 119.87670044 76.20840332 119.87506104 77.14282227 C119.62109375 79.328125 119.62109375 79.328125 117.62109375 81.328125 C114.3984375 81.55859375 114.3984375 81.55859375 110.55859375 81.515625 C109.28886719 81.50917969 108.01914062 81.50273438 106.7109375 81.49609375 C103.62109375 81.328125 103.62109375 81.328125 102.62109375 80.328125 C102.50902097 78.84693792 102.46436727 77.36056946 102.44750977 75.87524414 C102.43401993 74.92657974 102.42053009 73.97791534 102.40663147 73.00050354 C102.39097389 71.44757851 102.39097389 71.44757851 102.375 69.86328125 C102.34202939 67.67903294 102.30881835 65.49478824 102.27539062 63.31054688 C102.22819393 59.86127517 102.18383901 56.41201459 102.14428711 52.96264648 C102.10425628 49.63769083 102.05275287 46.31305613 102 42.98828125 C101.99158585 41.97121597 101.98317169 40.9541507 101.97450256 39.90626526 C101.91408709 28.38983966 101.91408709 28.38983966 97.24609375 18.265625 C92.6165463 14.84857807 88.17225124 15.19168287 82.57421875 15.23046875 C81.41741608 15.23259117 81.41741608 15.23259117 80.23724365 15.23475647 C77.78182037 15.24033966 75.32648933 15.25288905 72.87109375 15.265625 C71.20312632 15.27064217 69.53515746 15.2752047 67.8671875 15.27929688 C63.78512088 15.29030359 59.70312294 15.30755664 55.62109375 15.328125 C55.15891388 19.25148094 55.15891388 19.25148094 57.30078125 21.07421875 C58.02523437 21.63238281 58.7496875 22.19054687 59.49609375 22.765625 C62.91065764 25.40303904 64.35466819 27.18803339 65.62109375 31.328125 C65.91564818 34.26534921 65.92520099 37.18645922 65.921875 40.13671875 C65.92616013 40.98105972 65.93044525 41.8254007 65.93486023 42.69532776 C65.94058835 44.47631943 65.941115 46.2573345 65.93676758 48.03833008 C65.93360824 50.75317552 65.95708293 53.46692979 65.98242188 56.18164062 C65.9846952 57.9166653 65.98539821 59.65169289 65.984375 61.38671875 C65.99358475 62.19314316 66.00279449 62.99956757 66.01228333 63.83042908 C65.97230954 68.73485982 65.31137119 72.06975878 62.62109375 76.328125 C57.9177897 80.67868124 54.14941688 81.68434169 47.90625 81.61328125 C43.46681758 81.05930079 40.71676036 78.53713643 37.80859375 75.328125 C35.21955122 70.96763231 35.1178597 66.31386972 35.62109375 61.328125 C37.53625023 54.94427006 38.67570791 54.29171556 44.62109375 50.328125 C29.77109375 49.833125 29.77109375 49.833125 14.62109375 49.328125 C14.8572238 56.58355169 14.8572238 56.58355169 15.16162109 63.83618164 C15.24573924 68.98050381 15.14035554 72.4465518 11.7421875 76.484375 C7.91089997 80.30569895 4.59374935 81.40452494 -0.75390625 81.703125 C-5.43531129 81.57070589 -8.86076852 80.47160391 -12.37890625 77.328125 C-16.32108435 72.05591112 -18.02361411 66.8826549 -17.37890625 60.328125 C-14.62726964 54.20830249 -10.75530287 49.82874572 -4.56640625 47.078125 C-3.84453125 46.830625 -3.12265625 46.583125 -2.37890625 46.328125 C-2.28609375 44.5028125 -2.28609375 44.5028125 -2.19140625 42.640625 C-2.15660156 41.95613281 -2.12179687 41.27164063 -2.0859375 40.56640625 C-2.851197 34.71982371 -7.20521083 31.48300652 -11.56640625 28.015625 C-12.12521484 27.56123047 -12.68402344 27.10683594 -13.25976562 26.63867188 C-14.62727481 25.52830117 -16.00233829 24.42724515 -17.37890625 23.328125 C-16.82559358 18.38647047 -14.56018111 14.84493743 -12.00390625 10.703125 C-11.60429688 10.03539062 -11.2046875 9.36765625 -10.79296875 8.6796875 C-5.47518617 -0.06666543 -5.47518617 -0.06666543 0 0 Z M-2.37890625 61.328125 C-2.70890625 61.988125 -3.03890625 62.648125 -3.37890625 63.328125 C-2.38890625 64.813125 -2.38890625 64.813125 -1.37890625 66.328125 C-1.37890625 64.678125 -1.37890625 63.028125 -1.37890625 61.328125 C-1.70890625 61.328125 -2.03890625 61.328125 -2.37890625 61.328125 Z M48.62109375 61.328125 C48.62109375 62.978125 48.62109375 64.628125 48.62109375 66.328125 C48.95109375 66.328125 49.28109375 66.328125 49.62109375 66.328125 C49.62109375 64.678125 49.62109375 63.028125 49.62109375 61.328125 C49.29109375 61.328125 48.96109375 61.328125 48.62109375 61.328125 Z " fill="#E50719" transform="translate(580.37890625,523.671875)"/>
<path d="M0 0 C4.45474598 3.00436357 7.24052848 6.62751871 8.6875 11.8125 C9.15655607 17.62879521 8.72564177 21.64765899 5.6875 26.8125 C1.84875096 29.39948305 -0.77756203 29.9431677 -5.3125 29.8125 C-5.20240537 34.04219262 -5.07182463 38.27101298 -4.9375 42.5 C-4.9065625 43.69818359 -4.875625 44.89636719 -4.84375 46.13085938 C-4.80507813 47.28779297 -4.76640625 48.44472656 -4.7265625 49.63671875 C-4.67943115 51.23132935 -4.67943115 51.23132935 -4.63134766 52.8581543 C-4.19957369 56.85884092 -3.41328634 59.78509942 -0.4375 62.5625 C3.98342112 65.16304183 8.6300219 65.35032883 13.6875 64.8125 C17.58394898 63.69149781 21.20176129 62.12681828 23.6875 58.8125 C26.37646753 50.74559741 26.04112597 40.14309223 24.6875 31.8125 C22.67806326 28.4701909 21.16743964 27.0673215 17.8515625 25.109375 C15.32846618 23.59733894 14.67574793 22.54595173 13.6875 19.8125 C13.00132701 13.86566738 14.36403148 9.66049537 17.6875 4.8125 C21.47461109 0.80785251 24.79837754 -1.08343817 30.375 -1.390625 C31.81242834 -1.41184165 33.2499515 -1.42726834 34.6875 -1.4375 C35.41195312 -1.458125 36.13640625 -1.47875 36.8828125 -1.5 C39.84541896 -1.52186425 42.11639489 -1.52617861 44.703125 0.0078125 C46.0683546 2.51073343 45.81347807 4.13401138 45.4375 6.9375 C45.32921875 7.82695313 45.2209375 8.71640625 45.109375 9.6328125 C44.6875 11.8125 44.6875 11.8125 43.6875 12.8125 C41.67155418 13.04677778 39.649026 13.22586124 37.625 13.375 C36.52027344 13.45878906 35.41554688 13.54257812 34.27734375 13.62890625 C33.42269531 13.68949219 32.56804688 13.75007812 31.6875 13.8125 C32.22831975 17.60655854 33.67586854 18.96599396 36.625 21.3125 C39.54277028 23.6424799 41.31414249 25.32545362 42.6875 28.8125 C42.95874023 31.75756836 42.95874023 31.75756836 42.99609375 35.15234375 C43.02123047 36.38017578 43.04636719 37.60800781 43.07226562 38.87304688 C43.10736807 41.45372652 43.13862996 44.03446131 43.16601562 46.61523438 C43.2056543 48.45891602 43.2056543 48.45891602 43.24609375 50.33984375 C43.26627563 52.02194946 43.26627563 52.02194946 43.28686523 53.73803711 C43.73484255 57.17580571 44.62856348 59.04676894 46.6875 61.8125 C51.08067896 64.70800431 54.47218583 65.37128366 59.6875 64.8125 C63.28220303 63.36079301 66.2570997 61.88247933 68.6875 58.8125 C70.16160198 54.39019405 69.91245829 50.07021583 69.9375 45.4375 C69.958125 44.49132812 69.97875 43.54515625 70 42.5703125 C70.06629186 35.67523213 70.06629186 35.67523213 66.6875 29.8125 C64.70244463 28.05051018 64.70244463 28.05051018 62.5625 26.5 C59.7951935 24.1403998 58.12917986 22.57517206 57.5 18.9375 C57.38255551 13.42828565 58.65367598 8.15507321 62.30859375 3.9453125 C67.64770531 -0.85414692 71.53488923 -1.32765384 78.6875 -1.3125 C79.904375 -1.31507813 81.12125 -1.31765625 82.375 -1.3203125 C85.6875 -1.1875 85.6875 -1.1875 89.6875 -0.1875 C89.6875 4.1025 89.6875 8.3925 89.6875 12.8125 C85.0675 13.1425 80.4475 13.4725 75.6875 13.8125 C75.3575 14.8025 75.0275 15.7925 74.6875 16.8125 C75.21859375 17.17601562 75.7496875 17.53953125 76.296875 17.9140625 C77.00328125 18.41679688 77.7096875 18.91953125 78.4375 19.4375 C79.13359375 19.92476562 79.8296875 20.41203125 80.546875 20.9140625 C84.17382618 24.13066519 86.45078203 27.25914632 87.18920898 32.10473633 C87.18735596 33.27286865 87.18550293 34.44100098 87.18359375 35.64453125 C87.18423828 36.93810547 87.18488281 38.23167969 87.18554688 39.56445312 C87.16995728 40.56617554 87.16995728 40.56617554 87.15405273 41.58813477 C87.12521778 43.60973165 87.13343471 45.62867818 87.14648438 47.65039062 C87.0917144 56.13130983 86.48511037 63.25343126 82 70.5625 C74.78239315 77.5850364 67.08943253 79.86834446 57.1875 80.0625 C48.7957634 79.90745637 42.82763889 78.20643163 35.6875 73.8125 C34.35986406 73.13455824 33.02775261 72.46514475 31.6875 71.8125 C31.130625 72.22242188 30.57375 72.63234375 30 73.0546875 C19.75023954 80.29184944 9.25253593 81.30111387 -3.0625 79.1875 C-9.9817734 77.3907826 -16.54386569 72.90029389 -20.3125 66.8125 C-23.2505938 60.32491189 -23.7672122 54.88801447 -23.74609375 47.8125 C-23.7513356 46.77738281 -23.75657745 45.74226562 -23.76197815 44.67578125 C-23.76837294 42.49740492 -23.7670945 40.31899394 -23.75854492 38.140625 C-23.75002513 34.82228773 -23.77884933 31.50566807 -23.81054688 28.1875 C-23.81215897 26.06250051 -23.8115812 23.937498 -23.80859375 21.8125 C-23.81982773 20.82894531 -23.83106171 19.84539063 -23.84263611 18.83203125 C-23.78142149 12.73357028 -22.96443882 7.83475615 -19.3125 2.8125 C-13.59165129 -2.18725149 -6.98694815 -2.504755 0 0 Z M-6.3125 12.8125 C-6.3125 14.7925 -6.3125 16.7725 -6.3125 18.8125 C-5.6525 18.4825 -4.9925 18.1525 -4.3125 17.8125 C-4.6425 16.1625 -4.9725 14.5125 -5.3125 12.8125 C-5.6425 12.8125 -5.9725 12.8125 -6.3125 12.8125 Z " fill="#E50719" transform="translate(741.3125,525.1875)"/>
<path d="M0 0 C3.68591524 2.51312402 6.93342086 5.395592 8.37487793 9.77233887 C8.78545882 12.07375633 8.90347289 14.24228854 8.93945312 16.58007812 C8.95617065 17.50784058 8.97288818 18.43560303 8.9901123 19.39147949 C9.00368774 20.38635376 9.01726318 21.38122803 9.03125 22.40625 C9.05886414 23.94835144 9.05886414 23.94835144 9.08703613 25.52160645 C9.1656254 29.9184338 9.23341247 34.31541321 9.30224609 38.71240234 C9.35403641 41.92292688 9.41126146 45.13332327 9.46875 48.34375 C9.48232544 49.33862427 9.49590088 50.33349854 9.5098877 51.35852051 C9.52660522 52.28628296 9.54332275 53.21404541 9.56054688 54.16992188 C9.57307495 54.98392456 9.58560303 55.79792725 9.59851074 56.63659668 C9.74987719 58.87318541 9.98920522 60.76411515 10.75 62.875 C15.59656824 65.41944833 20.57319351 65.36225932 25.75 63.875 C29.27575166 61.1572331 30.98523436 59.21245468 31.75 54.875 C31.90407761 51.22514695 31.74816073 47.58732085 31.625 43.9375 C31.6146875 42.94814453 31.604375 41.95878906 31.59375 40.93945312 C31.40993277 34.93704979 31.40993277 34.93704979 28.3671875 29.8828125 C27.50351562 29.22023438 26.63984375 28.55765625 25.75 27.875 C19.86072514 21.28674555 19.86072514 21.28674555 19.5 16.6875 C19.90146451 10.56516616 21.67799956 6.55003845 26.25 2.5 C30.66094226 -1.1177465 34.64890408 -1.30718975 40.1875 -1.3125 C41.50621094 -1.32667969 42.82492187 -1.34085938 44.18359375 -1.35546875 C47.4050867 -1.14728903 49.08920999 -0.84668766 51.75 0.875 C51.77687279 2.68742052 51.79633715 4.49995233 51.8125 6.3125 C51.82410156 7.32183594 51.83570313 8.33117187 51.84765625 9.37109375 C51.75 11.875 51.75 11.875 50.75 12.875 C48.56707226 13.10981693 46.37796826 13.28863323 44.1875 13.4375 C42.98996094 13.52128906 41.79242187 13.60507812 40.55859375 13.69140625 C39.63175781 13.75199219 38.70492187 13.81257812 37.75 13.875 C37.42 14.865 37.09 15.855 36.75 16.875 C37.52923828 17.38546875 37.52923828 17.38546875 38.32421875 17.90625 C39.02160156 18.3909375 39.71898437 18.875625 40.4375 19.375 C41.46423828 20.07109375 41.46423828 20.07109375 42.51171875 20.78125 C46.76236106 24.75741802 49.425544 28.25610741 50.15893555 34.17578125 C50.28587459 37.99864795 50.29937455 41.8003711 50.25 45.625 C50.21684595 48.22376773 50.20544936 50.82292983 50.21875 53.421875 C50.20263672 54.56495117 50.18652344 55.70802734 50.16992188 56.88574219 C50.49598294 60.05871286 50.49598294 60.05871286 53.09570312 62.21582031 C57.41181644 64.91378813 60.7161101 65.22216482 65.75 64.875 C69.98019111 63.04832657 71.69145049 60.93482647 73.75 56.875 C74.34812477 52.89087465 74.21391383 48.89950715 74.1875 44.875 C74.20748047 43.79476562 74.22746094 42.71453125 74.24804688 41.6015625 C74.27686126 35.38978183 74.27686126 35.38978183 71.921875 29.765625 C69.65160645 27.72480401 69.65160645 27.72480401 66.5625 25.625 C63.2475699 22.38373501 62.77689663 20.71517094 62.58984375 16.2109375 C62.99142721 10.35369576 64.81966896 6.38263772 69.1875 2.4375 C73.90251341 -1.43366314 78.45721762 -1.28401024 84.375 -1.25 C85.055625 -1.25386719 85.73625 -1.25773438 86.4375 -1.26171875 C91.49655878 -1.25172061 91.49655878 -1.25172061 93.75 -0.125 C93.77686553 1.85409398 93.79633375 3.83328971 93.8125 5.8125 C93.82410156 6.91464844 93.83570313 8.01679687 93.84765625 9.15234375 C93.75 11.875 93.75 11.875 92.75 12.875 C90.73405418 13.10927778 88.711526 13.28836124 86.6875 13.4375 C85.58277344 13.52128906 84.47804688 13.60507812 83.33984375 13.69140625 C82.48519531 13.75199219 81.63054687 13.81257812 80.75 13.875 C80.2929209 17.78946095 80.2929209 17.78946095 82.39453125 19.62109375 C83.10996094 20.17925781 83.82539062 20.73742187 84.5625 21.3125 C88.73853174 24.59095115 91.43697168 27.50808982 92.15405273 32.93017578 C92.1862126 36.62085275 92.20775901 40.30917634 92.1875 44 C92.20748047 45.2684375 92.22746094 46.536875 92.24804688 47.84375 C92.24369203 56.29215241 91.6969003 64.9553509 86.19873047 71.80859375 C79.89788937 78.07889765 71.24056462 80.09873734 62.625 80.3125 C54.37712626 80.05051934 47.90096167 78.62912544 41.75 72.875 C37.91610796 74.31270951 34.33436131 76.07330545 30.71484375 77.97265625 C23.62547112 81.22841187 14.32992437 80.91174246 6.9375 78.8125 C0.74010571 76.37006468 -3.8298214 72.53096043 -6.96484375 66.66796875 C-9.30159946 59.92522739 -8.56041635 52.41911185 -8.4375 45.375 C-8.4224286 43.86980503 -8.40874453 42.36459549 -8.39648438 40.859375 C-8.36366687 37.19761059 -8.31201989 33.53639979 -8.25 29.875 C-9.89742187 29.91367187 -9.89742187 29.91367187 -11.578125 29.953125 C-16.31357799 29.85237068 -18.62204044 28.56997 -21.86328125 25.1953125 C-24.74370504 20.37567382 -23.80372477 14.28640115 -23.25 8.875 C-21.29371382 4.33641606 -18.67925776 1.84207104 -14.2421875 -0.43359375 C-9.33991217 -2.13497166 -4.83006339 -1.67194502 0 0 Z M-10.25 12.875 C-10.25 14.855 -10.25 16.835 -10.25 18.875 C-9.59 18.875 -8.93 18.875 -8.25 18.875 C-8.25 16.895 -8.25 14.915 -8.25 12.875 C-8.91 12.875 -9.57 12.875 -10.25 12.875 Z " fill="#E30718" transform="translate(901.25,525.125)"/>
<path d="M0 0 C0 3.86829564 -0.43775319 5.4485322 -1.9375 8.875 C-3.56602953 12.59902093 -4.37838851 15.98699511 -5 20 C-0.45802149 19.5237598 4.08352265 19.04349391 8.625 18.5625 C9.91019531 18.42779297 11.19539063 18.29308594 12.51953125 18.15429688 C14.38544922 17.95610352 14.38544922 17.95610352 16.2890625 17.75390625 C17.43068848 17.63345947 18.57231445 17.5130127 19.74853516 17.38891602 C22.85340569 17.01753452 25.9205038 16.54044139 29 16 C29.71268945 18.56568204 30.14244129 20.42471387 29.49609375 23.03515625 C27.17201545 26.08740529 24.02149104 26.4324948 20.4375 27.1875 C19.69113281 27.35548096 18.94476563 27.52346191 18.17578125 27.6965332 C11.21893778 29.15872094 4.30884368 29.60410284 -2.78125 29.82421875 C-5.85545299 29.63295437 -5.85545299 29.63295437 -7 31 C-7.68932234 35.0377067 -8.09741869 39.11859617 -8.5625 43.1875 C-8.69817383 44.37029541 -8.83384766 45.55309082 -8.97363281 46.77172852 C-10.87241443 60.50410549 -10.87241443 60.50410549 -9 74 C-6.92511453 75.5666741 -6.92511453 75.5666741 -4 76 C4.57442146 73.99930166 9.96822593 68.08885711 16 62 C16.85878769 72.55354654 16.85878769 72.55354654 14.125 76.8125 C8.29627213 83.60451903 0.49585642 86.84022492 -8.23046875 87.94921875 C-13.32907048 88.0427051 -16.17181865 86.28466798 -20.3125 83.375 C-24.89132782 76.93072381 -24.15279223 69.46199297 -23 62 C-23.66 62 -24.32 62 -25 62 C-25.26683594 62.88171875 -25.53367187 63.7634375 -25.80859375 64.671875 C-29.96254363 76.27569565 -39.01414915 87.60031525 -50.0546875 93.16015625 C-54.37418287 95.02499863 -58.33951364 95.62669419 -63 95 C-67.93253538 92.58026566 -70.0259504 90.09097002 -72 85 C-73.064929 80.91438443 -73.00328123 77.25954154 -72.7734375 73.0546875 C-72.71039042 71.7174736 -72.64790706 70.38023302 -72.5859375 69.04296875 C-72.48245843 66.95121318 -72.3741523 64.8600159 -72.25585938 62.76904297 C-72.14372374 60.73967303 -72.05097219 58.71014138 -71.9609375 56.6796875 C-71.89696777 55.47038574 -71.83299805 54.26108398 -71.76708984 53.01513672 C-71.72040593 49.99194398 -71.72040593 49.99194398 -73.50244141 48.08251953 C-73.99663574 47.72528809 -74.49083008 47.36805664 -75 47 C-74.1875 44.6875 -74.1875 44.6875 -72 42 C-67.35214215 40.10801485 -62.85949459 38.38016847 -58 40 C-57.06913085 43.82690649 -57.03399622 47.10575082 -57.46484375 50.9765625 C-58.05615422 57.01734224 -58.14855673 62.99664296 -58.125 69.0625 C-58.12886719 70.09310547 -58.13273437 71.12371094 -58.13671875 72.18554688 C-58.13478516 73.65797852 -58.13478516 73.65797852 -58.1328125 75.16015625 C-58.13168457 76.04324463 -58.13055664 76.92633301 -58.12939453 77.83618164 C-58.13932351 80.04887423 -58.13932351 80.04887423 -57 82 C-53.57853878 82.28182556 -51.56830343 82.3382322 -48.578125 80.55859375 C-38.57088947 71.44126339 -28.74019219 58.22425095 -25 45 C-25.73337306 42.66809508 -25.73337306 42.66809508 -27 41 C-26.34 40.34 -25.68 39.68 -25 39 C-24.01 39 -23.02 39 -22 39 C-21.67 36.69 -21.34 34.38 -21 32 C-23.10409639 31.97298592 -25.20829178 31.95359777 -27.3125 31.9375 C-28.48425781 31.92589844 -29.65601563 31.91429687 -30.86328125 31.90234375 C-34.03059195 31.85100102 -34.03059195 31.85100102 -37 33 C-38.10048822 29.79024269 -38.20067767 28.43145699 -36.75 25.3125 C-31.57678269 20.96229454 -24.56579726 20.86892238 -18 21 C-17.9175 19.845 -17.835 18.69 -17.75 17.5 C-17.01355827 11.95213896 -15.46744715 7.13191563 -11.1328125 3.38671875 C-7.46214306 0.9280628 -4.54752888 -0.71055139 0 0 Z " fill="#0136AC" transform="translate(388,547)"/>
<path d="M0 0 C0.99 0.99 0.99 0.99 2 2 C1.69293736 17.04606942 -14.26836704 32.69591805 -24 43 C-14.96982466 54.22670448 -1.8779472 67.70385435 13.07421875 69.9453125 C16.24211443 70.03527303 18.21598928 69.5185513 21 68 C22.81495093 66.09430152 24.37450101 64.07702649 26 62 C26.66 62 27.32 62 28 62 C27.97296031 67.96225141 27.13867775 72.16058832 22.9609375 76.5625 C19.92106912 78.79092941 16.70892815 79.63376585 13.07421875 80.4921875 C11.0227272 80.80438136 11.0227272 80.80438136 10 82 C2.70862012 83.13421465 -2.94838791 79.82057018 -9 76 C-29.68575233 60.62849534 -29.68575233 60.62849534 -34 52 C-34.33 64.87 -34.66 77.74 -35 91 C-39.57618554 92.52539518 -43.27242007 93.53651177 -48 94 C-49.67335996 92.32664004 -49.11962895 90.28612091 -49.12442017 88.05252075 C-49.12082489 87.3454599 -49.11722961 86.63839905 -49.11352539 85.90991211 C-49.11367142 85.16849472 -49.11381744 84.42707733 -49.1139679 83.66319275 C-49.11326865 81.20121379 -49.10547574 78.73930957 -49.09765625 76.27734375 C-49.09579211 74.57483461 -49.09436819 72.87232493 -49.09336853 71.16981506 C-49.08954302 66.68006927 -49.07971247 62.19035562 -49.06866455 57.70062256 C-49.05845113 53.12268509 -49.05387106 48.54474244 -49.04882812 43.96679688 C-49.03809022 34.97785043 -49.02101341 25.98892788 -49 17 C-49.81984375 17.31195312 -50.6396875 17.62390625 -51.484375 17.9453125 C-53.10085937 18.52925781 -53.10085937 18.52925781 -54.75 19.125 C-55.81734375 19.51945313 -56.8846875 19.91390625 -57.984375 20.3203125 C-61 21 -61 21 -63.328125 20.1796875 C-65 19 -65 19 -66 18 C-66.04080783 16.00041636 -66.04254356 13.99954746 -66 12 C-60.19073987 9.2538043 -54.26852286 6.8680158 -48.25 4.625 C-47.51724854 4.33802246 -46.78449707 4.05104492 -46.02954102 3.75537109 C-45.32369873 3.49836426 -44.61785645 3.24135742 -43.890625 2.9765625 C-43.26188477 2.74018066 -42.63314453 2.50379883 -41.98535156 2.26025391 C-40 2 -40 2 -35 4 C-34.505 22.315 -34.505 22.315 -34 41 C-24.17869893 29.54181542 -16.18980927 16.77908659 -9.625 3.1875 C-7.0591437 -1.84552582 -5.16967813 -1.18471791 0 0 Z " fill="#0137AC" transform="translate(283,570)"/>
<path d="M0 0 C5.75537538 4.73219754 9.27942977 8.87888416 10.8125 16.3125 C11.06839654 19.15839216 11.07039551 21.98013332 11.04296875 24.8359375 C11.04251053 25.62271881 11.04205231 26.40950012 11.0415802 27.22012329 C11.03857834 28.86893234 11.03075466 30.51773908 11.01831055 32.16650391 C10.99990233 34.70094722 10.99780218 37.23502764 10.99804688 39.76953125 C10.99313659 41.37500318 10.98731043 42.98047264 10.98046875 44.5859375 C10.97935593 45.34627289 10.9782431 46.10660828 10.97709656 46.88998413 C10.92860031 52.19639969 10.92860031 52.19639969 9.8125 53.3125 C7.11595146 53.38569621 4.44558542 53.40492537 1.75 53.375 C0.61208008 53.36823242 0.61208008 53.36823242 -0.54882812 53.36132812 C-2.42841871 53.3495068 -4.30796899 53.33157078 -6.1875 53.3125 C-6.20208252 52.27843018 -6.21666504 51.24436035 -6.23168945 50.17895508 C-6.28980882 46.33013918 -6.36704023 42.48190001 -6.44995117 38.63354492 C-6.48313655 36.97022892 -6.51118834 35.30680204 -6.53393555 33.64331055 C-6.56759999 31.24740501 -6.6199194 28.85250965 -6.67578125 26.45703125 C-6.68217117 25.7172554 -6.6885611 24.97747955 -6.69514465 24.21528625 C-6.82131402 19.75121445 -7.47649788 16.88475612 -10.1875 13.3125 C-14.01710732 9.9470875 -17.77880653 9.81705554 -22.6796875 9.94140625 C-26.53432569 10.51179664 -28.96608291 12.1648886 -32.1875 14.3125 C-32.8475 14.3125 -33.5075 14.3125 -34.1875 14.3125 C-34.5175 15.3025 -34.8475 16.2925 -35.1875 17.3125 C-33.95 17.704375 -32.7125 18.09625 -31.4375 18.5 C-27.46912929 19.98199331 -25.4728176 21.65599184 -23.1875 25.3125 C-21.068694 31.668918 -21.01866735 39.68864828 -23.75 45.875 C-26.08727881 49.74049958 -28.87732725 51.95763234 -33.1875 53.3125 C-37.82280831 54.10009221 -41.78070019 53.83780697 -46 51.6875 C-50.11152329 48.62401206 -52.6350198 45.77656169 -53.7734375 40.69921875 C-54.29279887 36.45123474 -54.41045755 32.2760868 -54.4375 28 C-54.458125 27.19626953 -54.47875 26.39253906 -54.5 25.56445312 C-54.55880273 16.42797909 -52.26572013 9.60365998 -45.93359375 2.96875 C-35.5561071 -6.87477201 -12.18084862 -6.44868456 0 0 Z M-38.1875 31.3125 C-38.1875 33.2925 -38.1875 35.2725 -38.1875 37.3125 C-37.1975 37.8075 -37.1975 37.8075 -36.1875 38.3125 C-36.1875 36.0025 -36.1875 33.6925 -36.1875 31.3125 C-36.8475 31.3125 -37.5075 31.3125 -38.1875 31.3125 Z " fill="#E60719" transform="translate(1065.1875,551.6875)"/>
<path d="M0 0 C1.94049971 1.45795981 3.78269151 2.95344876 5.57421875 4.58984375 C6.18910156 4.16832031 6.80398438 3.74679687 7.4375 3.3125 C8.24574219 2.76464844 9.05398438 2.21679688 9.88671875 1.65234375 C11.08748047 0.83443359 11.08748047 0.83443359 12.3125 0 C16.44103567 -2.57409564 19.78277921 -2.8028972 24.57421875 -2.41015625 C30.369983 -0.51788247 33.70668145 2.08417213 36.57421875 7.58984375 C37.85079217 11.78578355 37.69955448 15.94602138 37.671875 20.29296875 C37.67046005 21.13075867 37.6690451 21.96854858 37.66758728 22.83172607 C37.66200072 25.50113532 37.64945069 28.17045995 37.63671875 30.83984375 C37.63170201 32.65234254 37.62713941 34.46484264 37.62304688 36.27734375 C37.61203569 40.71487623 37.5947803 45.15234566 37.57421875 49.58984375 C32.95421875 49.58984375 28.33421875 49.58984375 23.57421875 49.58984375 C23.59742188 47.43324219 23.620625 45.27664063 23.64453125 43.0546875 C23.66016652 40.94637642 23.67228913 38.838072 23.68408203 36.72973633 C23.69408725 35.27397734 23.70769571 33.81823818 23.72509766 32.36254883 C23.74958919 30.25987835 23.76075669 28.15747551 23.76953125 26.0546875 C23.78000488 24.79261475 23.79047852 23.53054199 23.80126953 22.23022461 C23.55806645 18.33086846 22.77799328 15.28655619 21.57421875 11.58984375 C15.93370308 10.31825941 15.93370308 10.31825941 10.57421875 11.58984375 C8.9218241 15.68297931 8.30329363 19.25810218 8.1953125 23.65234375 C8.16115234 24.77898438 8.12699219 25.905625 8.09179688 27.06640625 C8.06537109 28.22914063 8.03894531 29.391875 8.01171875 30.58984375 C7.95146821 32.90243901 7.88777943 35.21494777 7.8203125 37.52734375 C7.79638428 38.54699219 7.77245605 39.56664062 7.74780273 40.6171875 C7.56970376 43.66716371 7.12932362 46.5875234 6.57421875 49.58984375 C4.59567617 49.78381851 2.61635395 49.96985696 0.63671875 50.15234375 C-1.01650391 50.30896484 -1.01650391 50.30896484 -2.703125 50.46875 C-4.05083984 50.52869141 -4.05083984 50.52869141 -5.42578125 50.58984375 C-7.33783579 48.67778921 -6.64771464 45.24316958 -6.70703125 42.703125 C-6.73464539 41.66118233 -6.73464539 41.66118233 -6.76281738 40.59819031 C-6.82172705 38.36633 -6.87440363 36.13438936 -6.92578125 33.90234375 C-6.97735797 31.68815999 -7.03044119 29.47407296 -7.08874512 27.26005554 C-7.1419766 25.23768158 -7.18930132 23.21515471 -7.23632812 21.19262695 C-7.40879882 17.9127944 -7.81080475 14.81255715 -8.42578125 11.58984375 C-14.01644827 10.4427791 -14.01644827 10.4427791 -19.36328125 11.83984375 C-21.68509886 13.50315084 -21.68509886 13.50315084 -22.42578125 16.58984375 C-22.57874595 19.1003928 -22.68273303 21.588729 -22.7421875 24.1015625 C-22.7629686 24.82978714 -22.78374969 25.55801178 -22.80516052 26.30830383 C-22.87046871 28.6312225 -22.92945362 30.95425281 -22.98828125 33.27734375 C-23.0314843 34.8535271 -23.07509917 36.42969923 -23.11914062 38.00585938 C-23.22613085 41.8670735 -23.32745086 45.72839978 -23.42578125 49.58984375 C-27.71578125 49.58984375 -32.00578125 49.58984375 -36.42578125 49.58984375 C-36.42578125 32.75984375 -36.42578125 15.92984375 -36.42578125 -1.41015625 C-32.46578125 -1.41015625 -28.50578125 -1.41015625 -24.42578125 -1.41015625 C-23.76578125 0.23984375 -23.10578125 1.88984375 -22.42578125 3.58984375 C-21.70390625 2.97109375 -20.98203125 2.35234375 -20.23828125 1.71484375 C-14.0019836 -2.99702558 -7.00967446 -4.07486712 0 0 Z " fill="#0037AB" transform="translate(900.42578125,658.41015625)"/>
<path d="M0 0 C0.33 9.57 0.66 19.14 1 29 C8.73342523 21.40700116 8.73342523 21.40700116 15.6875 13.375 C16.80898438 12.01568359 16.80898438 12.01568359 17.953125 10.62890625 C20.00948529 8.09683625 20.00948529 8.09683625 21.484375 5.52734375 C23.19528671 2.91958315 24.27197244 1.56074653 27 0 C32.95367933 -0.95603437 39.01894572 -0.45569937 45 0 C41.89476499 5.00844356 38.25517312 9.12572468 34.1875 13.375 C32.93272741 14.70230654 31.67881143 16.03042343 30.42578125 17.359375 C29.83104004 17.98908203 29.23629883 18.61878906 28.62353516 19.26757812 C24.18744272 24.00118894 20.03638829 28.92419842 16 34 C16.92619141 35.10794922 16.92619141 35.10794922 17.87109375 36.23828125 C22.84264099 42.19147157 27.78401671 48.16696863 32.68359375 54.1796875 C34.37316609 56.23680593 36.07207075 58.28297069 37.78515625 60.3203125 C38.24792969 60.87138672 38.71070313 61.42246094 39.1875 61.99023438 C40.49930148 63.54986198 41.81403069 65.10702568 43.12890625 66.6640625 C45 69 45 69 45 70 C42.12270306 70.16286586 39.25469706 70.28124242 36.375 70.375 C35.56675781 70.42527344 34.75851562 70.47554687 33.92578125 70.52734375 C30.48303563 70.61131316 27.99375369 70.66704015 25.07519531 68.70800781 C23.4140625 67.1015625 23.4140625 67.1015625 21 64 C21 63.34 21 62.68 21 62 C20.34 62 19.68 62 19 62 C17.66015625 60.48828125 17.66015625 60.48828125 16.0625 58.3125 C11.29283571 51.98663168 6.13962373 46.02795375 1 40 C0.67 49.9 0.34 59.8 0 70 C-4.47213595 72.23606798 -10.01472757 70.38348249 -15 70 C-15 46.9 -15 23.8 -15 0 C-2 -1 -2 -1 0 0 Z " fill="#0037AC" transform="translate(600,638)"/>
<path d="M0 0 C6.69709445 6.50390903 8.89097805 12.9807059 9.25 22.25 C9.14668103 29.90851889 6.83702813 37.02484761 2 43 C-3.66532696 48.51221002 -9.89006445 49.20351838 -17.47265625 49.36328125 C-20 49 -20 49 -26 46 C-26.33 54.25 -26.66 62.5 -27 71 C-31.62 71 -36.24 71 -41 71 C-42.40565166 68.18869668 -42.13502539 65.84640994 -42.14526367 62.7019043 C-42.14862228 62.05615448 -42.1519809 61.41040466 -42.15544128 60.74508667 C-42.16495976 58.60477792 -42.16689504 56.46454737 -42.16796875 54.32421875 C-42.17118144 52.83689847 -42.17454552 51.34957852 -42.17805481 49.86225891 C-42.18404883 46.74092883 -42.1858945 43.61962645 -42.18530273 40.49829102 C-42.18520126 36.50351325 -42.19883674 32.50891382 -42.21607494 28.51417828 C-42.22720979 25.44034514 -42.22922146 22.36655486 -42.22869301 19.29270363 C-42.22987153 17.82034505 -42.23428614 16.3479853 -42.24202538 14.87564659 C-42.25185245 12.81239847 -42.2489364 10.74953395 -42.24291992 8.6862793 C-42.24505745 6.92661079 -42.24505745 6.92661079 -42.24723816 5.13139343 C-42 2 -42 2 -40 -3 C-36.37 -3 -32.74 -3 -29 -3 C-28.67 -1.35 -28.34 0.3 -28 2 C-27.46890625 1.65066406 -26.9378125 1.30132813 -26.390625 0.94140625 C-25.68421875 0.48636719 -24.9778125 0.03132812 -24.25 -0.4375 C-23.55390625 -0.88996094 -22.8578125 -1.34242188 -22.140625 -1.80859375 C-15.33652957 -5.59554467 -6.28485584 -4.28512898 0 0 Z M-25 11 C-28.61146245 16.85305983 -28.93891639 23.24348398 -28 30 C-26.68093304 32.84044481 -25.69513552 34.53231168 -23.08984375 36.28515625 C-19.36644622 37.558767 -15.87040454 37.65776106 -12 37 C-7.35777838 33.77062844 -5.1740264 29.43376821 -4 24 C-4.10011618 18.29337753 -5.83698705 14.60896173 -9 10 C-13.80867878 6.18622028 -20.54928364 7.16743869 -25 11 Z " fill="#0136AA" transform="translate(991,660)"/>
<path d="M0 0 C1.00063477 0.27360352 1.00063477 0.27360352 2.02148438 0.55273438 C4.50911018 1.24304426 6.87275232 1.90512616 9.1875 3.0625 C9.04519192 4.47952513 8.89849254 5.8961096 8.75 7.3125 C8.66878906 8.10140625 8.58757813 8.8903125 8.50390625 9.703125 C8.21115007 11.88614639 7.76685581 13.9398182 7.1875 16.0625 C4.61122366 15.62085263 2.37914091 15.15147614 0 14.046875 C-6.71590481 11.69630832 -16.98293224 11.71604063 -23.5 14.625 C-28.64433718 17.86150352 -31.13480415 22.21423858 -33.1875 27.8125 C-34.68240011 35.22950437 -33.72809605 42.83520692 -29.96875 49.4140625 C-26.51771234 54.33412295 -21.50712152 56.67624362 -15.8125 58.0625 C-8.25573373 59.0890329 -2.62717534 57.17599387 4.1875 54.0625 C5.1775 53.7325 6.1675 53.4025 7.1875 53.0625 C7.8475 57.0225 8.5075 60.9825 9.1875 65.0625 C-2.09921947 70.8543692 -12.69021043 73.33036017 -25.31640625 70.19140625 C-33.92857748 66.83672908 -40.42083044 61.53631837 -45.8125 54.0625 C-50.81973945 42.40985017 -51.18465285 32.08754319 -47.1328125 20.14453125 C-43.24671313 11.07313362 -36.49923424 4.88087559 -27.44921875 1.06640625 C-18.08069795 -2.22438509 -9.60330198 -2.76154654 0 0 Z " fill="#0136A9" transform="translate(787.8125,637.9375)"/>
<path d="M0 0 C0.31602043 3.66421409 0.56948685 7.33027847 0.8125 11 C0.90208984 12.02996094 0.99167969 13.05992187 1.08398438 14.12109375 C1.45439093 20.24254946 1.07211152 24.25795106 -2.41137695 29.37890625 C-7.31060048 34.37826758 -11.99971383 34.49951695 -18.6484375 34.6171875 C-19.57919098 34.64225372 -20.50994446 34.66731995 -21.46890259 34.69314575 C-23.43385643 34.74202111 -25.3990036 34.7835989 -27.36425781 34.81835938 C-30.35843356 34.87468834 -33.35046895 34.96311673 -36.34375 35.0546875 C-38.25776923 35.09829675 -40.17183242 35.14002517 -42.0859375 35.1796875 C-42.97469574 35.20763397 -43.86345398 35.23558044 -44.77914429 35.26437378 C-50.32013022 35.33371129 -54.10750074 34.66354506 -59 32 C-63.2102006 27.45741514 -64.35927236 24.50570435 -64.28125 18.44921875 C-63.68733375 13.27719805 -61.3423242 9.41902844 -57.8125 5.6875 C-48.84079993 0.30447996 -39.12949231 -0.32160828 -28.90234375 1.57421875 C-23.72228089 2.92089259 -18.8458964 4.73858168 -14 7 C-13.67 5.35 -13.34 3.7 -13 2 C-11.58461283 1.66127487 -10.16762037 1.32925376 -8.75 1 C-7.96109375 0.814375 -7.1721875 0.62875 -6.359375 0.4375 C-4 0 -4 0 0 0 Z M-46 18 C-46 19.32 -46 20.64 -46 22 C-36.1 22 -26.2 22 -16 22 C-23.39067469 16.08746024 -37.69217972 10.73065725 -46 18 Z " fill="#E30718" transform="translate(992,480)"/>
<path d="M0 0 C5.65411248 4.86516655 8.67141785 10.96961298 9.6875 18.3125 C9.79449219 19.07304688 9.90148437 19.83359375 10.01171875 20.6171875 C10.55475146 28.17137592 7.88764377 34.12375313 3.6875 40.3125 C-2.37686333 46.65864183 -9.08078547 48.36762211 -17.6875 48.6875 C-25.15239139 48.55879498 -30.30377447 46.77418453 -36.0625 42.0625 C-41.94993914 34.86674105 -45.21035504 28.82976346 -44.3125 19.3125 C-42.65211825 10.95829577 -39.68162917 4.34407928 -32.5 -0.5 C-21.75774364 -6.6384322 -10.733627 -5.46807413 0 0 Z M-27.3125 12.3125 C-29.69289232 17.07328464 -29.92165109 22.08317219 -29.3125 27.3125 C-27.77916192 31.45251281 -26.26448943 34.2267278 -22.3125 36.3125 C-18.31304098 37.34939678 -16.0421889 37.57003726 -12.125 36.1875 C-8.12359591 33.51989727 -5.83550834 30.88152501 -4.3125 26.3125 C-3.53798344 19.76085175 -4.45887755 15.6647534 -8.3125 10.3125 C-10.23549168 8.10462066 -11.48740259 7.45290855 -14.35546875 6.96484375 C-20.43353647 6.56778405 -23.26785972 7.7746109 -27.3125 12.3125 Z " fill="#0137AB" transform="translate(845.3125,660.6875)"/>
<path d="M0 0 C5.58533227 5.90449412 7.17118818 12.66914458 7.3125 20.625 C7.1875 24.3125 7.1875 24.3125 6.1875 25.3125 C3.81411361 25.47221977 1.46631728 25.5717433 -0.91015625 25.62890625 C-1.61901474 25.64968735 -2.32787323 25.67046844 -3.05821228 25.69187927 C-5.33037305 25.75744598 -7.60265264 25.8162923 -9.875 25.875 C-11.41212183 25.91817849 -12.9492315 25.96179255 -14.48632812 26.00585938 C-18.2615959 26.11313449 -22.0369836 26.21438137 -25.8125 26.3125 C-24.88174807 31.30721185 -24.88174807 31.30721185 -21.578125 34.73046875 C-12.91512015 36.55361525 -4.93768984 35.61766197 3.1875 32.3125 C4.85092837 33.97592837 4.54798097 36.0950709 4.75 38.375 C4.83378906 39.29410156 4.91757813 40.21320312 5.00390625 41.16015625 C5.06449219 41.87042969 5.12507813 42.58070313 5.1875 43.3125 C3.94014433 43.9634259 2.68948168 44.60801669 1.4375 45.25 C0.74140625 45.60964844 0.0453125 45.96929688 -0.671875 46.33984375 C-7.83226088 49.59337675 -17.3732265 49.63970548 -24.84375 47.40625 C-32.09019985 44.00129164 -36.08514626 39.49309013 -39.1875 32.125 C-41.75520432 24.47386485 -41.06055117 16.62821866 -37.8671875 9.22265625 C-33.9064177 2.04926206 -29.28108137 -1.6644335 -21.4453125 -4.06640625 C-13.62577014 -5.91107574 -6.77785767 -4.0667146 0 0 Z M-23.8125 10.3125 C-24.4725 11.9625 -25.1325 13.6125 -25.8125 15.3125 C-19.5425 15.3125 -13.2725 15.3125 -6.8125 15.3125 C-7.50552969 10.70717611 -7.50552969 10.70717611 -8.8125 8.3125 C-15.37777603 5.74347894 -18.19849768 5.89296626 -23.8125 10.3125 Z " fill="#0137A9" transform="translate(1139.8125,660.6875)"/>
<path d="M0 0 C1.79244141 0.01740234 1.79244141 0.01740234 3.62109375 0.03515625 C5.41740234 0.04869141 5.41740234 0.04869141 7.25 0.0625 C8.17683594 0.07410156 9.10367188 0.08570313 10.05859375 0.09765625 C10.07841309 1.07114014 10.09823242 2.04462402 10.11865234 3.04760742 C10.19494742 6.67269976 10.28362711 10.29740319 10.37597656 13.92211914 C10.41416784 15.48844706 10.44903769 17.05485974 10.48046875 18.62133789 C10.52633446 20.87807425 10.58429144 23.13423208 10.64453125 25.390625 C10.65608246 26.08665329 10.66763367 26.78268158 10.67953491 27.49980164 C10.79770629 31.42685859 11.21206545 34.60188532 13.05859375 38.09765625 C15.48012113 39.30841994 16.81282462 39.17533339 19.49609375 38.97265625 C20.27855469 38.92882812 21.06101562 38.885 21.8671875 38.83984375 C24.23475485 38.26228959 24.23475485 38.26228959 25.66357422 36.03295898 C27.36989676 32.44263418 27.53453701 29.28750374 27.5703125 25.390625 C27.5882637 24.66523026 27.6062149 23.93983551 27.62471008 23.19245911 C27.67861592 20.89008283 27.71264376 18.58791146 27.74609375 16.28515625 C27.77928443 14.71807057 27.81377571 13.15101185 27.84960938 11.58398438 C27.93433034 7.75535668 28.00123442 3.92678765 28.05859375 0.09765625 C30.20436012 0.07079687 32.3502202 0.05132537 34.49609375 0.03515625 C35.69105469 0.02355469 36.88601563 0.01195312 38.1171875 0 C41.05859375 0.09765625 41.05859375 0.09765625 42.05859375 1.09765625 C42.15186091 2.66312673 42.17604957 4.23278397 42.17211914 5.80102539 C42.17204361 6.80198746 42.17196808 7.80294952 42.17189026 8.83424377 C42.16672897 9.92277145 42.16156769 11.01129913 42.15625 12.1328125 C42.15483505 13.2411998 42.1534201 14.3495871 42.15196228 15.49156189 C42.14634408 19.04778694 42.1337885 22.60395008 42.12109375 26.16015625 C42.11608109 28.56445222 42.11151778 30.96874917 42.10742188 33.37304688 C42.09636874 39.28127402 42.07909191 45.18945462 42.05859375 51.09765625 C37.76859375 51.09765625 33.47859375 51.09765625 29.05859375 51.09765625 C28.39859375 49.77765625 27.73859375 48.45765625 27.05859375 47.09765625 C26.29546875 47.73703125 25.53234375 48.37640625 24.74609375 49.03515625 C19.47347163 53.08158718 13.45818053 52.93203275 7.05859375 52.09765625 C2.07972469 49.95595226 -0.33221556 47.47663818 -2.5222168 42.51928711 C-4.15028848 38.03258587 -4.34596254 33.99284304 -4.26953125 29.2578125 C-4.26765808 28.45025009 -4.26578491 27.64268768 -4.26385498 26.81065369 C-4.2571823 25.12071543 -4.24336449 23.43079134 -4.22265625 21.7409668 C-4.19119757 19.14292196 -4.18164906 16.54548301 -4.17578125 13.94726562 C-4.16662213 12.30077377 -4.15624986 10.65428812 -4.14453125 9.0078125 C-4.14028137 8.22874039 -4.13603149 7.44966827 -4.13165283 6.64698792 C-4.04412477 0.13426709 -4.04412477 0.13426709 0 0 Z " fill="#0037AA" transform="translate(1011.94140625,656.90234375)"/>
<path d="M0 0 C0.33 4.95 0.66 9.9 1 15 C5.29 15.33 9.58 15.66 14 16 C14 19.3 14 22.6 14 26 C9.38 26.33 4.76 26.66 0 27 C0.1400827 31.31275889 0.2867801 35.62511136 0.4375 39.9375 C0.47681641 41.16919922 0.51613281 42.40089844 0.55664062 43.66992188 C0.59853516 44.83974609 0.64042969 46.00957031 0.68359375 47.21484375 C0.72025146 48.29886475 0.75690918 49.38288574 0.79467773 50.49975586 C0.72364265 52.939263 0.72364265 52.939263 2 54 C3.85287502 54.07226502 5.70833878 54.0838122 7.5625 54.0625 C8.57441406 54.05347656 9.58632812 54.04445313 10.62890625 54.03515625 C11.41136719 54.02355469 12.19382812 54.01195312 13 54 C13.495 58.95 13.495 58.95 14 64 C8.19054523 67.98362613 1.83691705 67.87696445 -5 67 C-8.7384863 65.68165815 -11.07752205 63.75829962 -12.93041992 60.2265625 C-15.48348938 53.16822549 -15.34163229 46.37141907 -15.1875 38.9375 C-15.17396484 37.69033203 -15.16042969 36.44316406 -15.14648438 35.15820312 C-15.1113902 32.10501033 -15.06222267 29.0527401 -15 26 C-17.31 26 -19.62 26 -22 26 C-22 22.7 -22 19.4 -22 16 C-20 15 -20 15 -16 15 C-15.67 11.37 -15.34 7.74 -15 4 C-13.06767179 3.13419713 -11.12892806 2.28270059 -9.1875 1.4375 C-8.10855469 0.96183594 -7.02960938 0.48617187 -5.91796875 -0.00390625 C-3 -1 -3 -1 0 0 Z " fill="#0136A8" transform="translate(1083,642)"/>
<path d="M0 0 C5.31931484 5.05079174 7.72489625 9.53369272 8.3125 16.9375 C8.1315906 23.25726822 5.36186718 28.51696984 1 33 C-5.00223262 37.32160749 -10.98253793 38.78917036 -18.359375 37.62890625 C-24.38216963 35.95706153 -28.88212356 32.66155694 -33 28 C-35.78138749 22.90078961 -35.79766609 16.68034944 -35 11 C-32.7703678 5.66131891 -29.03088225 0.91955876 -24.125 -2.1875 C-16.42018247 -5.13345964 -6.88642105 -4.69528708 0 0 Z M-23.1875 9.75 C-25.41821969 12.03763076 -25.41821969 12.03763076 -25 16 C-22.69 16 -20.38 16 -18 16 C-18 13.36 -18 10.72 -18 8 C-21.07646007 7.68765248 -21.07646007 7.68765248 -23.1875 9.75 Z M-9 8 C-10.41577477 9.18424326 -10.41577477 9.18424326 -10.0625 12.5625 C-10.041875 13.696875 -10.02125 14.83125 -10 16 C-7.36 16 -4.72 16 -2 16 C-2.26656572 13.06556598 -2.26656572 13.06556598 -3 10 C-5.81509993 7.7226499 -5.81509993 7.7226499 -9 8 Z M-22 24 C-21.32445453 27.04453886 -21.32445453 27.04453886 -19.22265625 28.1953125 C-16.71129136 29.10452369 -15.08331319 29.15256416 -12.4375 28.875 C-11.67308594 28.81054688 -10.90867188 28.74609375 -10.12109375 28.6796875 C-7.42914842 28.04267985 -7.42914842 28.04267985 -5 24 C-10.61 24 -16.22 24 -22 24 Z " fill="#0139AE" transform="translate(201,530)"/>
<path d="M0 0 C0 5.28 0 10.56 0 16 C4.29 16 8.58 16 13 16 C13 19.63 13 23.26 13 27 C8.71 26.67 4.42 26.34 0 26 C0.1400749 30.47941636 0.28677324 34.95844063 0.4375 39.4375 C0.47681641 40.71689453 0.51613281 41.99628906 0.55664062 43.31445312 C0.59853516 44.52939453 0.64042969 45.74433594 0.68359375 46.99609375 C0.72025146 48.12200928 0.75690918 49.2479248 0.79467773 50.40795898 C0.71218045 52.92853441 0.71218045 52.92853441 2 54 C3.68608966 54.07205511 5.37500659 54.08386068 7.0625 54.0625 C7.98160156 54.05347656 8.90070312 54.04445313 9.84765625 54.03515625 C10.55792969 54.02355469 11.26820313 54.01195312 12 54 C13.5722859 57.43937541 14.69741396 60.21403853 14 64 C8.64847864 68.00881113 3.42374333 67.73224017 -3 67 C-7.63720109 65.75947487 -10.12688632 64.41982972 -12.671875 60.28125 C-15.05344549 54.23062428 -14.57981707 47.47002187 -14.6875 41.0625 C-14.72072013 39.69723375 -14.75521404 38.33199787 -14.79101562 36.96679688 C-14.87318976 33.64461414 -14.94244368 30.3226853 -15 27 C-16.98 26.67 -18.96 26.34 -21 26 C-21 22.7 -21 19.4 -21 16 C-19.02 15.67 -17.04 15.34 -15 15 C-14.67 11.04 -14.34 7.08 -14 3 C-12.04486839 2.303447 -10.08577524 1.61800435 -8.125 0.9375 C-7.03445313 0.55464844 -5.94390625 0.17179688 -4.8203125 -0.22265625 C-2 -1 -2 -1 0 0 Z " fill="#0037AA" transform="translate(694,642)"/>
<path d="M0 0 C2.40561896 0.93725414 4.68222497 2.02931848 7 3.1640625 C9.06180538 4.18500551 9.06180538 4.18500551 11.75 3.9375 C14.0927533 3.04853892 14.0927533 3.04853892 16.3125 1.4375 C19.90220418 -0.48257433 23.05840696 -0.67257342 27 0 C32.98791858 2.93025803 37.4258312 8.24286445 42 13 C40.38048136 17.85855593 36.24470098 19.30969656 32 22 C29.03 20.02 26.06 18.04 23 16 C21.659375 16.825 20.31875 17.65 18.9375 18.5 C14.6626863 20.83050591 11.93452754 21.86570659 7 21 C4.3970564 19.77436199 1.90830821 18.45713375 -0.5703125 16.99609375 C-3.58278639 15.76107632 -4.92721839 16.02251672 -8 17 C-10.31758696 18.04350037 -12.5600597 19.18623544 -14.81640625 20.35546875 C-17 21 -17 21 -19.15234375 20.23828125 C-21 19 -21 19 -23 17 C-23.38671875 14.6640625 -23.38671875 14.6640625 -23 12 C-21.20703125 9.6484375 -21.20703125 9.6484375 -18.8125 7.375 C-18.03519531 6.61960937 -17.25789062 5.86421875 -16.45703125 5.0859375 C-11.03526738 0.48304099 -7.02990746 -1.09556999 0 0 Z " fill="#E20518" transform="translate(1034,524)"/>
<path d="M0 0 C0 4.29 0 8.58 0 13 C-1.03125 12.938125 -2.0625 12.87625 -3.125 12.8125 C-7.41175744 13.01992375 -9.47788513 13.5736542 -13 16 C-18.10295062 22.49382705 -17.43547911 28.88923214 -17.1875 36.875 C-17.13549499 39.33065108 -17.08710904 41.78638246 -17.04296875 44.2421875 C-17.01227295 45.3235498 -16.98157715 46.40491211 -16.94995117 47.51904297 C-17 50 -17 50 -18 51 C-20.18639453 51.07258946 -22.37500389 51.08373783 -24.5625 51.0625 C-26.35880859 51.04896484 -26.35880859 51.04896484 -28.19140625 51.03515625 C-29.11824219 51.02355469 -30.04507812 51.01195312 -31 51 C-31.85305238 34.25425286 -32.07087214 17.73814431 -31 1 C-28.47524538 -0.26237731 -26.68799534 -0.09856404 -23.875 -0.0625 C-22.96492188 -0.05347656 -22.05484375 -0.04445313 -21.1171875 -0.03515625 C-20.41851563 -0.02355469 -19.71984375 -0.01195312 -19 0 C-18.34 1.98 -17.68 3.96 -17 6 C-16.54109375 5.57847656 -16.0821875 5.15695312 -15.609375 4.72265625 C-14.99578125 4.17480469 -14.3821875 3.62695312 -13.75 3.0625 C-13.14671875 2.51722656 -12.5434375 1.97195313 -11.921875 1.41015625 C-7.64027187 -1.73142653 -5.45909579 -0.9098493 0 0 Z " fill="#0136A8" transform="translate(1186,657)"/>
<path d="M0 0 C0 16.5 0 33 0 50 C-3 51 -3 51 -14 50 C-14 33.5 -14 17 -14 0 C-2 -1 -2 -1 0 0 Z " fill="#0036AB" transform="translate(665,658)"/>
<path d="M0 0 C0 16.5 0 33 0 50 C-4.62 50 -9.24 50 -14 50 C-14.02464201 43.03996034 -14.04283222 36.07994584 -14.05493164 29.11987305 C-14.05997341 26.75007688 -14.06680665 24.38028385 -14.07543945 22.01049805 C-14.0875119 18.61245961 -14.09322971 15.21446215 -14.09765625 11.81640625 C-14.10281754 10.74975235 -14.10797882 9.68309845 -14.11329651 8.5841217 C-14.11337204 7.60318039 -14.11344757 6.62223907 -14.11352539 5.61157227 C-14.115746 4.74331314 -14.11796661 3.87505402 -14.12025452 2.98048401 C-14 1 -14 1 -13 0 C-11.1943106 -0.26085401 -9.37942194 -0.45961049 -7.5625 -0.625 C-6.07943359 -0.76808594 -6.07943359 -0.76808594 -4.56640625 -0.9140625 C-2 -1 -2 -1 0 0 Z " fill="#0036AB" transform="translate(572,658)"/>
<path d="M0 0 C1.23076923 5.41538462 1.23076923 5.41538462 0.0625 8.375 C-0.4634375 9.179375 -0.4634375 9.179375 -1 10 C-1.66 10 -2.32 10 -3 10 C-3 10.99 -3 11.98 -3 13 C-8.28580834 17.76589276 -14.26136954 20.8785793 -21 23 C-21.66 22.34 -22.32 21.68 -23 21 C-23 18.1875 -23 18.1875 -22 15 C-18.33966945 11.42479342 -14.26865771 8.81731409 -10 6 C-7.89870486 4.4063211 -5.81090599 2.79768609 -3.734375 1.171875 C-2 0 -2 0 0 0 Z " fill="#0135AA" transform="translate(342,556)"/>
<path d="M0 0 C1.84764895 2.35155321 2.00279881 4.0223905 2.375 7 C2 10 2 10 0.25 12.3125 C-3.2244898 14.91836735 -3.2244898 14.91836735 -6 15 C-9.52438848 13.73122015 -11.47602652 12.86569531 -13.4375 9.625 C-14.08635316 6.59701858 -14.07135139 4.90795376 -13 2 C-8.61331246 -2.09424171 -5.43885459 -2.43012652 0 0 Z " fill="#0031A5" transform="translate(664,637)"/>
<path d="M0 0 C3 1.5 3 1.5 5.0625 4.75 C6 8.5 6 8.5 5 11.8125 C2.72222828 14.87325575 1.76732871 15.90065225 -2 16.5 C-8.15384615 14.34615385 -8.15384615 14.34615385 -10 12.5 C-10.59063136 5.29429735 -10.59063136 5.29429735 -8.1875 2.0625 C-5.19827242 -0.07266256 -3.65192716 -0.60865453 0 0 Z " fill="#0133A8" transform="translate(568,635.5)"/>
<path d="M0 0 C0.66 0 1.32 0 2 0 C2.0246501 5.10863896 2.04283607 10.21724359 2.05493164 15.32592773 C2.05997204 17.06519168 2.0668043 18.80445136 2.07543945 20.54370117 C2.08751792 23.03825937 2.09323108 25.53276173 2.09765625 28.02734375 C2.10281754 28.80963852 2.10797882 29.59193329 2.11329651 30.39793396 C2.11349226 32.26567114 2.06199694 34.13329204 2 36 C1 37 1 37 -2.59765625 37.09765625 C-4.08597255 37.09191272 -5.57426296 37.07889891 -7.0625 37.0625 C-9.681875 37.041875 -12.30125 37.02125 -15 37 C-15 26.77 -15 16.54 -15 6 C-14.67 6 -14.34 6 -14 6 C-13.67 15.24 -13.34 24.48 -13 34 C-8.71 34.33 -4.42 34.66 0 35 C0 23.45 0 11.9 0 0 Z " fill="#D40816" transform="translate(1074,568)"/>
<path d="M0 0 C13.03224437 3.87336056 24.00982247 12.041742 34 21 C34.73734375 21.61746094 35.4746875 22.23492187 36.234375 22.87109375 C41.33209752 27.14883377 45.68658766 31.94091797 50 37 C49.34 37.66 48.68 38.32 48 39 C47.63390625 38.55011719 47.2678125 38.10023438 46.890625 37.63671875 C35.74333511 24.39267672 22.41858368 13.84861639 7 6 C6.1853125 5.58492188 5.370625 5.16984375 4.53125 4.7421875 C2.69321046 3.81669576 0.8475547 2.90634759 -1 2 C-0.67 1.34 -0.34 0.68 0 0 Z " fill="#0233A3" transform="translate(344,457)"/>
<path d="M0 0 C2.02532475 1.65501785 2.92157617 2.52687868 3.35644531 5.15039062 C3.34709961 5.97732422 3.33775391 6.80425781 3.328125 7.65625 C3.32361328 8.58816162 3.31910156 9.52007324 3.31445312 10.48022461 C3.28254883 11.97501343 3.28254883 11.97501343 3.25 13.5 C3.23904297 14.51779541 3.22808594 15.53559082 3.21679688 16.58422852 C3.08102494 26.0698168 2.61849409 35.53483152 2 45 C1.67 45 1.34 45 1 45 C0.18647759 39.32504784 -0.13614934 33.85307186 -0.09765625 28.125 C-0.0962413 27.31506592 -0.09482635 26.50513184 -0.09336853 25.6706543 C-0.08782383 23.11373006 -0.07528207 20.55689724 -0.0625 18 C-0.05747784 16.25390753 -0.05291619 14.50781366 -0.04882812 12.76171875 C-0.0378726 8.50777791 -0.02064694 4.25390439 0 0 Z " fill="#012EA0" transform="translate(501,577)"/>
<path d="M0 0 C1.11568359 -0.00386719 2.23136719 -0.00773437 3.38085938 -0.01171875 C10.00328123 -0.00395961 16.48933821 0.30973852 23.0625 1.125 C23.0625 1.785 23.0625 2.445 23.0625 3.125 C7.8825 3.125 -7.2975 3.125 -22.9375 3.125 C-22.6075 2.465 -22.2775 1.805 -21.9375 1.125 C-14.6494209 -0.07324818 -7.37034301 -0.02545887 0 0 Z " fill="#0233A8" transform="translate(282.9375,377.875)"/>
<path d="M0 0 C1.31871094 -0.01417969 2.63742187 -0.02835938 3.99609375 -0.04296875 C7.2175867 0.16521097 8.90170999 0.46581234 11.5625 2.1875 C7.07448544 3.24927681 2.59016941 3.52070341 -2 3.75 C-2.81831299 3.7924585 -3.63662598 3.83491699 -4.47973633 3.87866211 C-13.79779803 4.31775158 -23.11184759 4.27594138 -32.4375 4.1875 C-32.1075 3.5275 -31.7775 2.8675 -31.4375 2.1875 C-30.81705811 2.16244385 -30.19661621 2.1373877 -29.55737305 2.11157227 C-26.74637603 1.99553279 -23.93570759 1.87284241 -21.125 1.75 C-19.66030273 1.69102539 -19.66030273 1.69102539 -18.16601562 1.63085938 C-17.22822266 1.58896484 -16.29042969 1.54707031 -15.32421875 1.50390625 C-14.02810669 1.44891968 -14.02810669 1.44891968 -12.70581055 1.39282227 C-8.37762825 1.00104514 -4.44601846 0.00426272 0 0 Z " fill="#D30311" transform="translate(311.4375,812.8125)"/>
<path d="M0 0 C0.33 0 0.66 0 1 0 C1.92159579 6.21170074 2.12177385 12.22609106 2.0625 18.5 C2.05798828 19.4178125 2.05347656 20.335625 2.04882812 21.28125 C2.03716348 23.5208621 2.01923286 25.76044011 2 28 C5.3 28 8.6 28 12 28 C12 26.35 12 24.7 12 23 C14 26 14 26 14 30 C9.38 30 4.76 30 0 30 C0 20.1 0 10.2 0 0 Z " fill="#012F9C" transform="translate(924,678)"/>
<path d="M0 0 C0.66 0.33 1.32 0.66 2 1 C2.13339991 12.70954775 1.76532392 24.31514365 1 36 C0.67 36 0.34 36 0 36 C-1.48253275 11.6441048 -1.48253275 11.6441048 -1 1 C-0.67 0.67 -0.34 0.34 0 0 Z " fill="#012D9A" transform="translate(172,593)"/>
<path d="M0 0 C0 0.66 0 1.32 0 2 C-1.16273438 2.04898437 -2.32546875 2.09796875 -3.5234375 2.1484375 C-14.74918379 2.65971847 -25.84774353 3.62761957 -37 5 C-37.33 4.34 -37.66 3.68 -38 3 C-25.41561377 -0.72214241 -12.99844141 -0.31238552 0 0 Z " fill="#02309F" transform="translate(291,445)"/>
<path d="M0 0 C0.33 0 0.66 0 1 0 C1.02915731 4.04165139 1.04685173 8.0832755 1.0625 12.125 C1.07087891 13.26710938 1.07925781 14.40921875 1.08789062 15.5859375 C1.09111328 16.69453125 1.09433594 17.803125 1.09765625 18.9453125 C1.10289307 19.96125488 1.10812988 20.97719727 1.11352539 22.02392578 C0.99652309 25.09114726 0.56776417 27.98633134 0 31 C-3.96 31.33 -7.92 31.66 -12 32 C-12.33 30.68 -12.66 29.36 -13 28 C-9.37 28.33 -5.74 28.66 -2 29 C-2 26.69 -2 24.38 -2 22 C-1.67 22 -1.34 22 -1 22 C-0.67 14.74 -0.34 7.48 0 0 Z " fill="#002B8F" transform="translate(907,677)"/>
<path d="M0 0 C2.24993359 -0.02707139 4.49996095 -0.04642829 6.75 -0.0625 C8.00296875 -0.07410156 9.2559375 -0.08570313 10.546875 -0.09765625 C14 0 14 0 18 1 C18 5.29 18 9.58 18 14 C13.71 14 9.42 14 5 14 C5 13.67 5 13.34 5 13 C8.96 13 12.92 13 17 13 C16.87625 11.535625 16.7525 10.07125 16.625 8.5625 C16.55539062 7.73878906 16.48578125 6.91507813 16.4140625 6.06640625 C16.27742187 5.38449219 16.14078125 4.70257812 16 4 C13.0384304 2.5192152 10.16493705 2.64685963 6.875 2.4375 C5.59367188 2.35371094 4.31234375 2.26992188 2.9921875 2.18359375 C1.51105469 2.09271484 1.51105469 2.09271484 0 2 C0 1.34 0 0.68 0 0 Z " fill="#D20414" transform="translate(813,524)"/>
<path d="M0 0 C0.66 0.33 1.32 0.66 2 1 C1.27554688 1.90621094 0.55109375 2.81242187 -0.1953125 3.74609375 C-5.42268283 10.32027748 -10.53191509 16.87368736 -15 24 C-15.33 23.01 -15.66 22.02 -16 21 C-14.75478186 18.87275235 -13.45071832 16.9838883 -12 15 C-11.45472656 14.195625 -10.90945312 13.39125 -10.34765625 12.5625 C-7.20682312 7.94403203 -4.13718679 3.7610789 0 0 Z " fill="#0230A0" transform="translate(181,492)"/>
<path d="M0 0 C2.26295793 4.20533015 3.05384497 8.35589554 4 13 C4.19980469 13.88042969 4.39960937 14.76085937 4.60546875 15.66796875 C4.79753906 16.54066406 4.98960938 17.41335938 5.1875 18.3125 C5.36667969 19.11300781 5.54585938 19.91351562 5.73046875 20.73828125 C6.01481917 23.12435219 5.73262119 24.7293939 5 27 C4.00048871 23.54537846 3.00659086 20.08932125 2.02734375 16.62890625 C1.44495403 14.57171974 0.85752995 12.5159002 0.25390625 10.46484375 C-0.81564496 6.63658805 -1.19747165 3.83190929 0 0 Z " fill="#012C9E" transform="translate(73,634)"/>
<path d="M0 0 C2.475 0.495 2.475 0.495 5 1 C4.76228882 1.85609863 4.76228882 1.85609863 4.51977539 2.72949219 C4.00638657 4.97210188 3.79834104 7.03317915 3.68359375 9.328125 C3.64169922 10.12734375 3.59980469 10.9265625 3.55664062 11.75 C3.51732422 12.575 3.47800781 13.4 3.4375 14.25 C3.39431641 15.09046875 3.35113281 15.9309375 3.30664062 16.796875 C3.20091457 18.86440671 3.09998705 20.93218281 3 23 C2.34 23.33 1.68 23.66 1 24 C0.67 16.08 0.34 8.16 0 0 Z " fill="#0031AB" transform="translate(170,568)"/>
<path d="M0 0 C0 0.66 0 1.32 0 2 C-2.4312326 3.2156163 -4.16556267 3.10308133 -6.875 3.1875 C-10.56385822 3.4425764 -10.56385822 3.4425764 -13.546875 5.3984375 C-14.77882946 7.21687074 -14.77882946 7.21687074 -16 10 C-16.66 9.67 -17.32 9.34 -18 9 C-17.06600348 5.26401391 -16.06145556 4.04640522 -12.9375 1.6875 C-8.70956649 -0.53350305 -4.66567742 -0.38087163 0 0 Z " fill="#D60414" transform="translate(738,524)"/>
<path d="M0 0 C0.33 0.66 0.66 1.32 1 2 C0.44054687 2.02578125 -0.11890625 2.0515625 -0.6953125 2.078125 C-7.41374369 2.5533838 -13.47693979 4.1596675 -19.8984375 6.16015625 C-23 7 -23 7 -27 7 C-27 6.34 -27 5.68 -27 5 C-24.27107717 4.35312193 -21.54187553 3.70746282 -18.8125 3.0625 C-18.04357422 2.88009766 -17.27464844 2.69769531 -16.48242188 2.50976562 C-5.2185002 -0.14910001 -5.2185002 -0.14910001 0 0 Z " fill="#032DA1" transform="translate(256,380)"/>
<path d="M0 0 C0.66 0 1.32 0 2 0 C1.97061497 6.47939848 0.80173678 10.09043313 -3.72265625 14.78515625 C-4.14417969 15.18605469 -4.56570313 15.58695313 -5 16 C-5.66 15.67 -6.32 15.34 -7 15 C-6 12 -6 12 -3 10 C-2.11409459 7.50335747 -2 5.67884659 -2 3 C-1.34 2.01 -0.68 1.02 0 0 Z " fill="#052A9B" transform="translate(309,632)"/>
<path d="M0 0 C0.33 0 0.66 0 1 0 C1.33 8.58 1.66 17.16 2 26 C0.68 26.33 -0.64 26.66 -2 27 C-1.84152588 26.45182617 -1.68305176 25.90365234 -1.51977539 25.33886719 C-0.9372438 22.71761184 -0.78793845 20.26127447 -0.68359375 17.578125 C-0.64169922 16.55332031 -0.59980469 15.52851562 -0.55664062 14.47265625 C-0.49766602 12.87744141 -0.49766602 12.87744141 -0.4375 11.25 C-0.39431641 10.17105469 -0.35113281 9.09210937 -0.30664062 7.98046875 C-0.20071011 5.32043572 -0.09863579 2.66031188 0 0 Z M2 12 C2.33 12 2.66 12 3 12 C3 15.63 3 19.26 3 23 C2.67 23 2.34 23 2 23 C2 19.37 2 15.74 2 12 Z " fill="#AF030F" transform="translate(767,558)"/>
<path d="M0 0 C-1.44077046 3.36179774 -3.24750021 5.59156268 -6 8 C-6.66 8 -7.32 8 -8 8 C-8.66 9.32 -9.32 10.64 -10 12 C-10.66 12 -11.32 12 -12 12 C-12.33 12.99 -12.66 13.98 -13 15 C-15.0625 15.6875 -15.0625 15.6875 -17 16 C-3.72340426 0 -3.72340426 0 0 0 Z " fill="#0333AB" transform="translate(142,434)"/>
<path d="M0 0 C0.66 0 1.32 0 2 0 C2.02687279 1.81242052 2.04633715 3.62495233 2.0625 5.4375 C2.07410156 6.44683594 2.08570313 7.45617187 2.09765625 8.49609375 C2 11 2 11 1 12 C-0.85287502 12.07226502 -2.70833878 12.0838122 -4.5625 12.0625 C-5.57441406 12.05347656 -6.58632813 12.04445313 -7.62890625 12.03515625 C-8.41136719 12.02355469 -9.19382812 12.01195312 -10 12 C-9.67 11.34 -9.34 10.68 -9 10 C-6.03 10 -3.06 10 0 10 C0 6.7 0 3.4 0 0 Z " fill="#D50213" transform="translate(951,526)"/>
<path d="M0 0 C1.32 0.66 2.64 1.32 4 2 C-2.07027358 4.1583195 -7.59370576 4.20852314 -14 4 C-13.67 3.34 -13.34 2.68 -13 2 C-10.3125 1.62109375 -10.3125 1.62109375 -7 1.4375 C-3.18265388 1.54568981 -3.18265388 1.54568981 0 0 Z " fill="#02319B" transform="translate(837,705)"/>
<path d="M0 0 C2.47938989 0.52578502 4.71533274 1.35118136 7.0078125 2.42578125 C6.6778125 3.08578125 6.3478125 3.74578125 6.0078125 4.42578125 C5.42773438 4.29300781 4.84765625 4.16023438 4.25 4.0234375 C-0.14989732 3.02874124 -4.53112908 2.11209793 -8.9921875 1.42578125 C-5.52232758 -0.8874587 -4.00930046 -0.61397037 0 0 Z " fill="#02319D" transform="translate(323.9921875,448.57421875)"/>
<path d="M0 0 C3.99012371 0.55989303 6.5255052 1.75669768 9.8125 4.0625 C10.60269531 4.61035156 11.39289063 5.15820312 12.20703125 5.72265625 C12.79871094 6.14417969 13.39039063 6.56570313 14 7 C13.67 7.66 13.34 8.32 13 9 C7.97290493 7.42903279 3.97133531 4.38006951 0 1 C0 0.67 0 0.34 0 0 Z " fill="#022F9D" transform="translate(268,640)"/>
<path d="M0 0 C0.66 0.33 1.32 0.66 2 1 C1.67 2.32 1.34 3.64 1 5 C-2.96 4.67 -6.92 4.34 -11 4 C-11 3.34 -11 2.68 -11 2 C-7.37 2 -3.74 2 0 2 C0 1.34 0 0.68 0 0 Z " fill="#D80312" transform="translate(487,672)"/>
<path d="M0 0 C1.21236328 0.01353516 1.21236328 0.01353516 2.44921875 0.02734375 C3.37154297 0.04474609 3.37154297 0.04474609 4.3125 0.0625 C4.3125 0.7225 4.3125 1.3825 4.3125 2.0625 C2.8562328 2.42506858 1.39738815 2.77729793 -0.0625 3.125 C-1.28066406 3.42083984 -1.28066406 3.42083984 -2.5234375 3.72265625 C-4.6875 4.0625 -4.6875 4.0625 -6.6875 3.0625 C-7.0175 2.4025 -7.3475 1.7425 -7.6875 1.0625 C-4.80538698 0.10179566 -2.98899956 -0.04331883 0 0 Z " fill="#D10316" transform="translate(893.6875,523.9375)"/>
<path d="M0 0 C1.04976964 3.14930893 1.10131595 5.38814456 1.0625 8.6875 C1.05347656 9.68136719 1.04445313 10.67523437 1.03515625 11.69921875 C1.02355469 12.45847656 1.01195312 13.21773437 1 14 C0.01 13.67 -0.98 13.34 -2 13 C-2.33 10.03 -2.66 7.06 -3 4 C-2.34 4 -1.68 4 -1 4 C-0.67 2.68 -0.34 1.36 0 0 Z " fill="#023299" transform="translate(816,676)"/>
<path d="M0 0 C0.99 0.33 1.98 0.66 3 1 C0.65361803 4.22627521 -2.20741566 4.88804013 -5.92578125 5.7265625 C-8.76888481 6.10135958 -11.23479957 5.69130011 -14 5 C-14 4.67 -14 4.34 -14 4 C-13.24074219 3.87882813 -12.48148438 3.75765625 -11.69921875 3.6328125 C-10.20841797 3.38144531 -10.20841797 3.38144531 -8.6875 3.125 C-7.70136719 2.96257813 -6.71523438 2.80015625 -5.69921875 2.6328125 C-2.79940173 2.11914546 -2.79940173 2.11914546 0 0 Z " fill="#02309D" transform="translate(988,703)"/>
<path d="M0 0 C0.33 0.99 0.66 1.98 1 3 C-1.1971953 6.33648176 -3.17767395 8.68607542 -7 10 C-8.32 10 -9.64 10 -11 10 C-11 9.34 -11 8.68 -11 8 C-9.9275 7.608125 -8.855 7.21625 -7.75 6.8125 C-4.10859135 5.27616532 -2.23052521 3.30117731 0 0 Z " fill="#D40415" transform="translate(990,504)"/>
<path d="M0 0 C2.12161334 2.12161334 2.92986249 3.7733159 4.125 6.5 C4.47820312 7.2940625 4.83140625 8.088125 5.1953125 8.90625 C6 11 6 11 6 13 C3 12 3 12 1.3125 9.3125 C-0.03558623 5.91018714 -0.25833766 3.61672729 0 0 Z " fill="#002E9F" transform="translate(481,501)"/>
<path d="M0 0 C2.56346181 0.68135159 2.56346181 0.68135159 4.8125 -0.0625 C5.410625 -0.206875 6.00875 -0.35125 6.625 -0.5 C7.285 0.16 7.945 0.82 8.625 1.5 C4.665 2.16 0.705 2.82 -3.375 3.5 C-3.705 2.51 -4.035 1.52 -4.375 0.5 C-2.375 -0.5 -2.375 -0.5 0 0 Z " fill="#072E99" transform="translate(238.375,660.5)"/>
<path d="M0 0 C0.33 0 0.66 0 1 0 C1.22226864 1.76913824 1.42733873 3.54044371 1.625 5.3125 C1.74101562 6.29863281 1.85703125 7.28476562 1.9765625 8.30078125 C2 11 2 11 0 14 C-2.27571116 5.96498906 -2.27571116 5.96498906 -1.125 1.9375 C-0.75375 1.298125 -0.3825 0.65875 0 0 Z " fill="#01309B" transform="translate(366,614)"/>
<path d="M0 0 C2.8203125 0.0234375 2.8203125 0.0234375 6.125 0.375 C7.22070312 0.48585938 8.31640625 0.59671875 9.4453125 0.7109375 C10.28835938 0.80632813 11.13140625 0.90171875 12 1 C12 1.33 12 1.66 12 2 C11.33613281 2.02578125 10.67226563 2.0515625 9.98828125 2.078125 C4.45558259 2.43351002 1.03433925 2.83118278 -3 7 C-2.25 2.25 -2.25 2.25 0 0 Z " fill="#DF0315" transform="translate(575,525)"/>
<path d="M0 0 C3.55780196 0.60990891 6.6828589 1.5783681 10 3 C9.67 3.99 9.34 4.98 9 6 C4.05 4.02 4.05 4.02 -1 2 C-0.67 1.34 -0.34 0.68 0 0 Z " fill="#012F9A" transform="translate(332,452)"/>
<path d="M0 0 C0 3.77910478 -0.99703962 4.46106101 -3.5 7.1875 C-4.1496875 7.90292969 -4.799375 8.61835937 -5.46875 9.35546875 C-5.9740625 9.89816406 -6.479375 10.44085937 -7 11 C-7.66 10.34 -8.32 9.68 -9 9 C-6.31941902 5.42589203 -3.57410797 2.68058098 0 0 Z " fill="#022F9C" transform="translate(754,642)"/>
<path d="M0 0 C0.99 0.33 1.98 0.66 3 1 C1.56967163 2.17544805 0.13046758 3.34010262 -1.3125 4.5 C-2.11300781 5.1496875 -2.91351563 5.799375 -3.73828125 6.46875 C-6 8 -6 8 -9 8 C-2.92207792 1.75324675 -2.92207792 1.75324675 0 0 Z " fill="#0332A1" transform="translate(204,471)"/>
<path d="M0 0 C1.46300982 0.93018526 2.92025579 1.86944027 4.375 2.8125 C5.18710937 3.33457031 5.99921875 3.85664063 6.8359375 4.39453125 C9 6 9 6 11 9 C7.25983417 9 6.54723807 8.0658409 3.8125 5.625 C3.09707031 4.99851562 2.38164062 4.37203125 1.64453125 3.7265625 C0 2 0 2 0 0 Z " fill="#002A9E" transform="translate(418,424)"/>
<path d="M0 0 C0 0.33 0 0.66 0 1 C-4.40914783 2.10228696 -8.48382401 2.07654536 -13 2 C-13 1.34 -13 0.68 -13 0 C-8.37078475 -1.0161692 -4.65537393 -0.83796731 0 0 Z " fill="#BC030D" transform="translate(323,814)"/>
<path d="M0 0 C2.97851562 0.43945312 2.97851562 0.43945312 5.95703125 0.87890625 C8.2025342 1.13904799 8.2025342 1.13904799 11 0 C10.67 0.99 10.34 1.98 10 3 C7.4375 4.1875 7.4375 4.1875 5 5 C3.35 3.35 1.7 1.7 0 0 Z " fill="#D90615" transform="translate(142,760)"/>
<path d="M0 0 C-5.94 3.465 -5.94 3.465 -12 7 C-12.33 6.34 -12.66 5.68 -13 5 C-11.59447701 3.96387729 -10.17508306 2.94655075 -8.75 1.9375 C-7.96109375 1.36902344 -7.1721875 0.80054688 -6.359375 0.21484375 C-4 -1 -4 -1 0 0 Z " fill="#D2030C" transform="translate(185,741)"/>
<path d="M0 0 C-0.33 0.99 -0.66 1.98 -1 3 C-5.0527516 3.98248524 -8.83861737 4.08159574 -13 4 C-8.84541088 1.76291355 -4.76123067 0 0 0 Z " fill="#C30211" transform="translate(273,655)"/>
<path d="M0 0 C0.33 1.32 0.66 2.64 1 4 C-0.98 4.99 -2.96 5.98 -5 7 C-5.99 6.34 -6.98 5.68 -8 5 C-5 3 -5 3 -1 3 C-0.67 2.01 -0.34 1.02 0 0 Z " fill="#0E3BAA" transform="translate(125,712)"/>
<path d="M0 0 C0.66 0.66 1.32 1.32 2 2 C-0.31 4.31 -2.62 6.62 -5 9 C-5.66 8.34 -6.32 7.68 -7 7 C-4.69 4.69 -2.38 2.38 0 0 Z " fill="#03309E" transform="translate(190,482)"/>
<path d="M0 0 C0.33 0.99 0.66 1.98 1 3 C-0.43359375 5.04296875 -0.43359375 5.04296875 -2.4375 7.1875 C-3.09621094 7.90292969 -3.75492187 8.61835938 -4.43359375 9.35546875 C-4.95050781 9.89816406 -5.46742187 10.44085938 -6 11 C-6.66 10.67 -7.32 10.34 -8 10 C-5.36 6.7 -2.72 3.4 0 0 Z " fill="#0231A8" transform="translate(116,460)"/>
<path d="M0 0 C0.33 0 0.66 0 1 0 C1 2.64 1 5.28 1 8 C1.66 8 2.32 8 3 8 C2.67 11.3 2.34 14.6 2 18 C1.67 18 1.34 18 1 18 C0.10395632 11.95170514 -0.11269443 6.1105424 0 0 Z " fill="#022EA2" transform="translate(69,608)"/>
<path d="M0 0 C0.33 1.32 0.66 2.64 1 4 C-0.09283577 5.03295436 -1.19970579 6.05107835 -2.3125 7.0625 C-2.92738281 7.63097656 -3.54226563 8.19945312 -4.17578125 8.78515625 C-4.77777344 9.18605469 -5.37976563 9.58695313 -6 10 C-6.99 9.67 -7.98 9.34 -9 9 C-8.43410156 8.51789062 -7.86820312 8.03578125 -7.28515625 7.5390625 C-6.55167969 6.90742187 -5.81820313 6.27578125 -5.0625 5.625 C-4.33160156 4.99851562 -3.60070312 4.37203125 -2.84765625 3.7265625 C-0.91619094 2.12252286 -0.91619094 2.12252286 0 0 Z " fill="#012D9E" transform="translate(402,610)"/>
<path d="M0 0 C-0.33 0.99 -0.66 1.98 -1 3 C-4.63 2.67 -8.26 2.34 -12 2 C-12 1.67 -12 1.34 -12 1 C-7.93631321 0.22596442 -4.13574827 -0.0984702 0 0 Z " fill="#022C97" transform="translate(191,526)"/>
<path d="M0 0 C4.95 1.98 4.95 1.98 10 4 C10 4.99 10 5.98 10 7 C6.7 5.35 3.4 3.7 0 2 C0 1.34 0 0.68 0 0 Z " fill="#012CA0" transform="translate(375,398)"/>
<path d="M0 0 C1.41805831 0.28482368 2.83440379 0.57818144 4.25 0.875 C5.03890625 1.03742188 5.8278125 1.19984375 6.640625 1.3671875 C8.96831144 1.99150075 10.89031952 2.84838542 13 4 C10.09905209 5.45047396 8.44027404 4.45356803 5.375 3.5625 C4.37210937 3.27503906 3.36921875 2.98757813 2.3359375 2.69140625 C1.56507813 2.46324219 0.79421875 2.23507812 0 2 C0 1.34 0 0.68 0 0 Z " fill="#022EA1" transform="translate(342,386)"/>
<path d="M0 0 C-0.33 0.99 -0.66 1.98 -1 3 C-4.375 3.625 -4.375 3.625 -8 4 C-8.66 3.34 -9.32 2.68 -10 2 C-3.375 0 -3.375 0 0 0 Z " fill="#D10312" transform="translate(313,740)"/>
<path d="M0 0 C0.66 0.33 1.32 0.66 2 1 C-0.12121657 3.33333823 -2.01594365 4.9148886 -5 6 C-7.12890625 5.546875 -7.12890625 5.546875 -9 5 C-7.54735962 4.1361871 -6.0876837 3.28419546 -4.625 2.4375 C-3.40683594 1.72400391 -3.40683594 1.72400391 -2.1640625 0.99609375 C-1.44992188 0.66738281 -0.73578125 0.33867188 0 0 Z " fill="#D2102D" transform="translate(159,697)"/>
<path d="M0 0 C0.33 1.32 0.66 2.64 1 4 C-0.65 5.32 -2.3 6.64 -4 8 C-4.33 7.34 -4.66 6.68 -5 6 C-3.35 4.02 -1.7 2.04 0 0 Z " fill="#DE0314" transform="translate(570,574)"/>
<path d="M0 0 C-2.85306797 2.32472205 -5.54074837 3.7508258 -9 5 C-9.33 4.34 -9.66 3.68 -10 3 C-3.375 -1.125 -3.375 -1.125 0 0 Z " fill="#0330A0" transform="translate(226,460)"/>
<path d="M0 0 C0.33 0.99 0.66 1.98 1 3 C-3.29 2.67 -7.58 2.34 -12 2 C-12 1.67 -12 1.34 -12 1 C-7.95858806 0.36605303 -4.0934693 -0.12404452 0 0 Z " fill="#04329A" transform="translate(307,445)"/>
<path d="M0 0 C0.33 0.99 0.66 1.98 1 3 C-0.375 4.5 -0.375 4.5 -2 6 C-2.66 6 -3.32 6 -4 6 C-4.33 6.99 -4.66 7.98 -5 9 C-5.33 8.01 -5.66 7.02 -6 6 C-4.02 4.02 -2.04 2.04 0 0 Z " fill="#D10512" transform="translate(450,744)"/>
<path d="M0 0 C0.33 0 0.66 0 1 0 C1.33 2.97 1.66 5.94 2 9 C0.68 9.33 -0.64 9.66 -2 10 C-1.34 6.7 -0.68 3.4 0 0 Z " fill="#0632B9" transform="translate(1143,695)"/>
<path d="M0 0 C0.66 0 1.32 0 2 0 C2 1.65 2 3.3 2 5 C-1.3 5 -4.6 5 -8 5 C-8 4.67 -8 4.34 -8 4 C-5.36 3.67 -2.72 3.34 0 3 C0 2.01 0 1.02 0 0 Z " fill="#14319D" transform="translate(499,629)"/>
<path d="M0 0 C0.66 0 1.32 0 2 0 C2.625 2.875 2.625 2.875 3 6 C2.34 6.66 1.68 7.32 1 8 C-0.42944945 5.64561267 -1.08661261 4.51967567 -0.625 1.75 C-0.41875 1.1725 -0.2125 0.595 0 0 Z " fill="#03299A" transform="translate(340,556)"/>
<path d="M0 0 C0.33 0 0.66 0 1 0 C1.25 7.625 1.25 7.625 -1 11 C-2.23076923 4.6 -2.23076923 4.6 -1.0625 1.5625 C-0.711875 1.046875 -0.36125 0.53125 0 0 Z " fill="#012F9A" transform="translate(208,543)"/>
<path d="M0 0 C0.66 0 1.32 0 2 0 C1.4409112 3.24271506 0.5867822 4.93057424 -2 7 C-2.66 7 -3.32 7 -4 7 C-2.92598892 4.08482708 -2.22189824 2.22189824 0 0 Z " fill="#D10513" transform="translate(934,486)"/>
<path d="M0 0 C0 0.66 0 1.32 0 2 C-2.8125 3.5625 -2.8125 3.5625 -6 5 C-6.99 4.67 -7.98 4.34 -9 4 C-8 2 -8 2 -5.625 0.875 C-3 0 -3 0 0 0 Z " fill="#0231A4" transform="translate(237,454)"/>
<path d="M0 0 C-4.1795645 2.78637633 -6.14668677 1.79562512 -11 1 C-7.2297564 -1.56376565 -4.32597804 -0.83191885 0 0 Z " fill="#012F95" transform="translate(1094,707)"/>
<path d="M0 0 C3.96 1.98 3.96 1.98 8 4 C6.02 4.99 6.02 4.99 4 6 C2.35 4.35 0.7 2.7 -1 1 C-0.67 0.67 -0.34 0.34 0 0 Z " fill="#012D95" transform="translate(1072,702)"/>
<path d="M0 0 C0.99 0.33 1.98 0.66 3 1 C2.67 5.29 2.34 9.58 2 14 C1.67 14 1.34 14 1 14 C0.67 9.38 0.34 4.76 0 0 Z " fill="#01309C" transform="translate(739,664)"/>
<path d="M0 0 C0.66 0 1.32 0 2 0 C2 0.66 2 1.32 2 2 C1.34 2 0.68 2 0 2 C-0.2475 2.639375 -0.495 3.27875 -0.75 3.9375 C-2 6 -2 6 -4.078125 6.62890625 C-4.71234375 6.75136719 -5.3465625 6.87382813 -6 7 C-5.04882866 5.8274869 -4.08882991 4.66212985 -3.125 3.5 C-2.59132813 2.8503125 -2.05765625 2.200625 -1.5078125 1.53125 C-0.76144531 0.77328125 -0.76144531 0.77328125 0 0 Z " fill="#022F9B" transform="translate(624,642)"/>
<path d="M0 0 C8.57142857 0.71428571 8.57142857 0.71428571 12 4 C7.24792529 4.43200679 4.21789302 2.98489083 0 1 C0 0.67 0 0.34 0 0 Z " fill="#012892" transform="translate(785,638)"/>
<path d="M0 0 C0.99 0.33 1.98 0.66 3 1 C3 1.66 3 2.32 3 3 C4.65 3 6.3 3 8 3 C5 5 5 5 2 6 C1.34 5.34 0.68 4.68 0 4 C0 2.68 0 1.36 0 0 Z " fill="#022E98" transform="translate(319,573)"/>
<path d="M0 0 C0.495 0.391875 0.99 0.78375 1.5 1.1875 C-6.53571429 3.46428571 -6.53571429 3.46428571 -10.5 2.1875 C-3.28774617 -1.06851751 -3.28774617 -1.06851751 0 0 Z " fill="#022E9F" transform="translate(245.5,572.8125)"/>
<path d="M0 0 C0.33 0.66 0.66 1.32 1 2 C4.96 2 8.92 2 13 2 C13 2.33 13 2.66 13 3 C8.38 3.33 3.76 3.66 -1 4 C-0.67 2.68 -0.34 1.36 0 0 Z " fill="#00319C" transform="translate(586,704)"/>
<path d="M0 0 C0.99 0.495 0.99 0.495 2 1 C2 1.99 2 2.98 2 4 C2.66 4 3.32 4 4 4 C4.33 5.65 4.66 7.3 5 9 C4.34 9 3.68 9 3 9 C0 3.375 0 3.375 0 0 Z " fill="#012C9D" transform="translate(89,686)"/>
<path d="M0 0 C3 3 3 3 3.1875 6.1875 C3.0946875 7.5796875 3.0946875 7.5796875 3 9 C2.01 9.495 2.01 9.495 1 10 C0.67 6.7 0.34 3.4 0 0 Z " fill="#022894" transform="translate(426,565)"/>
<path d="M0 0 C0.598125 0.20625 1.19625 0.4125 1.8125 0.625 C1.4825 2.605 1.1525 4.585 0.8125 6.625 C0.4825 6.625 0.1525 6.625 -0.1875 6.625 C-0.1875 4.975 -0.1875 3.325 -0.1875 1.625 C-1.8375 1.625 -3.4875 1.625 -5.1875 1.625 C-2.1875 -0.375 -2.1875 -0.375 0 0 Z " fill="#032C9C" transform="translate(416.1875,563.375)"/>
<path d="M0 0 C4.875 4.625 4.875 4.625 6 8 C2.17053157 6.54744301 0.87949705 4.57104439 -1 1 C-0.67 0.67 -0.34 0.34 0 0 Z " fill="#0130A3" transform="translate(396,497)"/>
<path d="M0 0 C0.66 0.66 1.32 1.32 2 2 C-3.75 6 -3.75 6 -6 6 C-4.95125002 3.37812506 -4.35068687 2.20628639 -1.875 0.75 C-1.25625 0.5025 -0.6375 0.255 0 0 Z " fill="#0432A9" transform="translate(213,465)"/>
<path d="M0 0 C-1.39332574 3.36720387 -2.9789286 4.9859524 -6 7 C-5.37162381 3.35541809 -4.14650034 0 0 0 Z " fill="#C9060F" transform="translate(443,753)"/>
<path d="M0 0 C2.5 2.3125 2.5 2.3125 5 5 C5 5.99 5 6.98 5 8 C2.5 5.6875 2.5 5.6875 0 3 C0 2.01 0 1.02 0 0 Z " fill="#01339F" transform="translate(607,682)"/>
</svg>